<svg id="Layer_1" data-name="Layer 1" xmlns="http://www.w3.org/2000/svg" xmlns:xlink="http://www.w3.org/1999/xlink" viewBox="0 0 646.47 814.84"><defs><style>.cls-1{fill:#231f20;}.cls-2{fill:#fff;}.cls-2,.cls-3,.cls-4,.cls-5{stroke:#fff;stroke-miterlimit:10;stroke-width:4px;}.cls-3{fill:url(#linear-gradient);}.cls-4{fill:url(#linear-gradient-2);}.cls-5{fill:url(#linear-gradient-3);}</style><linearGradient id="linear-gradient" x1="926.64" y1="888.92" x2="522.9" y2="1060.48" gradientTransform="translate(-408.4 163.77) rotate(-28.98)" gradientUnits="userSpaceOnUse"><stop offset="0" stop-color="#bdbdbc" stop-opacity="0.5"/><stop offset="0.81" stop-color="#231f20"/></linearGradient><linearGradient id="linear-gradient-2" x1="711.13" y1="1019.07" x2="317.42" y2="1186.36" gradientTransform="translate(-408.4 163.77) rotate(-28.98)" gradientUnits="userSpaceOnUse"><stop offset="0" stop-color="#bdbdbc" stop-opacity="0.5"/><stop offset="0.77" stop-color="#231f20"/></linearGradient><linearGradient id="linear-gradient-3" x1="639.79" y1="1291.56" x2="962.46" y2="1010.86" gradientTransform="translate(-408.4 163.77) rotate(-28.98)" gradientUnits="userSpaceOnUse"><stop offset="0" stop-color="#bdbdbc" stop-opacity="0.5"/><stop offset="0.84" stop-color="#231f20"/></linearGradient></defs><title>sphere_logo_vertical_grey_b</title><path class="cls-1" d="M413.49,1114.67q1.14,8.08,4.49,12.08,6.12,7.27,21,7.28,8.91,0,14.46-1.92,10.53-3.67,10.54-13.68a10.1,10.1,0,0,0-5.16-9q-5.18-3.12-16.38-5.52l-12.76-2.8q-18.82-4.15-25.86-9-11.93-8.16-11.92-25.52a33.91,33.91,0,0,1,11.66-26.32q11.65-10.47,34.26-10.48,18.85,0,32.19,9.88t14,28.68H460.29q-.66-10.63-9.52-15.12-5.89-3-14.68-3-9.75,0-15.58,3.84a12.16,12.16,0,0,0-5.82,10.72,10.1,10.1,0,0,0,5.74,9.44q3.69,2.08,15.66,4.88l20.7,4.88q13.6,3.21,20.39,8.56,10.54,8.33,10.54,24.08,0,16.15-12.49,26.84t-35.29,10.68q-23.29,0-36.63-10.52T390,1114.67Z" transform="translate(-389.97 -486.96)"/><path class="cls-1" d="M584.17,1100.24q-10.36,9.12-29.57,9.12H530v44.75H505.56V1029.65h50.63q17.52,0,27.92,9.62t10.41,29.81Q594.52,1091.12,584.17,1100.24Zm-18.81-44.84q-4.68-4.14-13.11-4.14H530v36.65h22.21q8.43,0,13.11-4.47t4.68-14.19Q570,1059.55,565.36,1055.4Z" transform="translate(-389.97 -486.96)"/><path class="cls-1" d="M612.57,1154.11v-124.4h24.48v47.43h45.83v-47.43h24.48v124.4H682.88v-55.53H637.05v55.53Z" transform="translate(-389.97 -486.96)"/><path class="cls-1" d="M814.92,1051.74H749.51v26.42h57.27v21.6H749.51v32h65.27v22.36H725.43v-124.4h89.49Z" transform="translate(-389.97 -486.96)"/><path class="cls-1" d="M907.81,1032.92a29.26,29.26,0,0,1,11,8.69,39.31,39.31,0,0,1,5.93,10.47,36.45,36.45,0,0,1,2.19,13.08,39,39,0,0,1-4.24,17.43q-4.25,8.57-14,12.11,8.16,3.45,11.56,9.83t3.4,19.45v8.36q0,8.52.65,11.56a10.4,10.4,0,0,0,4.54,7.09v3.12H901.69q-1.12-4.14-1.6-6.67a64.16,64.16,0,0,1-1-10.72l-.16-11.56q-.15-11.9-3.9-15.86t-14-4H856.89v48.78H832.81v-124.4h56.4Q901.3,1030,907.81,1032.92Zm-50.92,18.4v33.42H883.4q7.9,0,11.86-2,7-3.54,7-14,0-11.29-6.77-15.19-3.79-2.19-11.39-2.19Z" transform="translate(-389.97 -486.96)"/><path class="cls-1" d="M1036.43,1051.74H971v26.42h57.28v21.6H971v32h65.28v22.36H947V1029.72h89.48Z" transform="translate(-389.97 -486.96)"/><path class="cls-2" d="M650,507.34a146.61,146.61,0,0,0-64.88,183.17l.2,0a146,146,0,0,1,27.85-2.15h.32A146.11,146.11,0,0,1,641,691.52l.44.09a147.78,147.78,0,0,1,26.12,8.23l.64.27a146.44,146.44,0,0,1,24,13l.77.51a145.83,145.83,0,0,1,21.17,17.48l.77.78A145.56,145.56,0,0,1,746.5,780,146.62,146.62,0,1,0,650,507.34Z" transform="translate(-389.97 -486.96)"/><path class="cls-2" d="M702.6,906.72a146.65,146.65,0,0,1,18.46-168.21,146.6,146.6,0,1,0-.68,193.58A147,147,0,0,1,702.6,906.72Z" transform="translate(-389.97 -486.96)"/><path class="cls-2" d="M856.62,691.37A146.5,146.5,0,0,1,695.3,779.93a146.61,146.61,0,1,0,161.32-88.56Z" transform="translate(-389.97 -486.96)"/><path class="cls-3" d="M650,507.34a146.61,146.61,0,0,0-64.88,183.17l.2,0a146,146,0,0,1,27.85-2.15h.32A146.11,146.11,0,0,1,641,691.52l.44.09a147.78,147.78,0,0,1,26.12,8.23l.64.27a146.44,146.44,0,0,1,24,13l.77.51a145.83,145.83,0,0,1,21.17,17.48l.77.78A145.56,145.56,0,0,1,746.5,780,146.62,146.62,0,1,0,650,507.34Z" transform="translate(-389.97 -486.96)"/><path class="cls-4" d="M702.6,906.72a146.65,146.65,0,0,1,18.46-168.21,146.6,146.6,0,1,0-.68,193.58A147,147,0,0,1,702.6,906.72Z" transform="translate(-389.97 -486.96)"/><path class="cls-5" d="M856.62,691.37A146.5,146.5,0,0,1,695.3,779.93a146.61,146.61,0,1,0,161.32-88.56Z" transform="translate(-389.97 -486.96)"/><path class="cls-1" d="M405.22,1224.84a9.6,9.6,0,0,0,3.14,3.74,13.23,13.23,0,0,0,4.73,2,27.1,27.1,0,0,0,5.83.6,16.36,16.36,0,0,0,3.87-.51,13.41,13.41,0,0,0,3.9-1.62,10,10,0,0,0,3-2.85,7.26,7.26,0,0,0,1.2-4.22,6.1,6.1,0,0,0-.86-3.3,7.74,7.74,0,0,0-2.22-2.34,13.19,13.19,0,0,0-3-1.56,29.45,29.45,0,0,0-3.23-1l-10.09-2.47a32,32,0,0,1-3.84-1.27,11.15,11.15,0,0,1-3.26-2,9.64,9.64,0,0,1-2.25-3.11,10.66,10.66,0,0,1-.86-4.5,14.13,14.13,0,0,1,.64-3.87,10.74,10.74,0,0,1,2.37-4.19,14,14,0,0,1,4.79-3.33,19.18,19.18,0,0,1,7.8-1.36,22.51,22.51,0,0,1,6.41.89,15.79,15.79,0,0,1,5.33,2.66,12.88,12.88,0,0,1,5,10.53h-4.31a10.57,10.57,0,0,0-1.18-4.54,10.18,10.18,0,0,0-2.73-3.23,12,12,0,0,0-3.86-2,15.89,15.89,0,0,0-4.6-.66,19.36,19.36,0,0,0-4.28.47,10.75,10.75,0,0,0-3.62,1.53,7.71,7.71,0,0,0-2.5,2.75,8.62,8.62,0,0,0-1,4.25,6.53,6.53,0,0,0,.54,2.76,5.83,5.83,0,0,0,1.49,2,8.07,8.07,0,0,0,2.19,1.33,16.48,16.48,0,0,0,2.63.83l11,2.72a32.55,32.55,0,0,1,4.53,1.56,14.9,14.9,0,0,1,3.75,2.28,9.58,9.58,0,0,1,2.53,3.33,11.07,11.07,0,0,1,.92,4.76,18.21,18.21,0,0,1-.15,2,10.13,10.13,0,0,1-.77,2.69,13.11,13.11,0,0,1-1.71,2.89,10.76,10.76,0,0,1-3,2.63,17.59,17.59,0,0,1-4.79,1.9,27.8,27.8,0,0,1-6.85.73,28.19,28.19,0,0,1-7.42-.92,15.9,15.9,0,0,1-5.84-2.82,12.41,12.41,0,0,1-3.71-4.88,16.08,16.08,0,0,1-1.11-7.17h4.31A12.81,12.81,0,0,0,405.22,1224.84Z" transform="translate(-389.97 -486.96)"/><path class="cls-1" d="M454.31,1201.86v3.36h-6.66v22.07a7.15,7.15,0,0,0,.54,3.08c.36.74,1.26,1.15,2.7,1.24a32.66,32.66,0,0,0,3.42-.19v3.36q-.88,0-1.77.06c-.59,0-1.19.07-1.78.07q-4,0-5.58-1.56c-1.06-1-1.56-2.95-1.52-5.74v-22.39H438v-3.36h5.71v-13.68h4v13.68Z" transform="translate(-389.97 -486.96)"/><path class="cls-1" d="M463.76,1202.07v7.67h.13a12.6,12.6,0,0,1,4.73-6.15,12.32,12.32,0,0,1,7.64-2v4a12,12,0,0,0-4.95.73,10.9,10.9,0,0,0-6.34,6.21,12.68,12.68,0,0,0-.89,4.79v17.44h-4v-32.72Z" transform="translate(-389.97 -486.96)"/><path class="cls-1" d="M480.89,1206.25a9.29,9.29,0,0,1,2.76-3.42,11.53,11.53,0,0,1,4.09-2,20,20,0,0,1,5.2-.63,22.47,22.47,0,0,1,4.31.41,10.33,10.33,0,0,1,3.87,1.55,8.46,8.46,0,0,1,2.79,3.21,11.53,11.53,0,0,1,1.08,5.36v17.37a2.1,2.1,0,0,0,2.35,2.41,3.13,3.13,0,0,0,1.27-.25v3.36c-.47.09-.88.15-1.24.19a10.42,10.42,0,0,1-1.37.07,6,6,0,0,1-2.44-.42,3.17,3.17,0,0,1-1.42-1.17,4.46,4.46,0,0,1-.67-1.81,15,15,0,0,1-.16-2.31h-.13A25.76,25.76,0,0,1,499,1231a11,11,0,0,1-2.48,2.06,11.46,11.46,0,0,1-3.11,1.27,16.76,16.76,0,0,1-4.15.44,16.35,16.35,0,0,1-4.28-.54,9.49,9.49,0,0,1-3.49-1.71,8.16,8.16,0,0,1-2.35-3,9.9,9.9,0,0,1-.85-4.28,8.5,8.5,0,0,1,1.52-5.36,9.65,9.65,0,0,1,4-3,23.5,23.5,0,0,1,5.64-1.43c2.1-.27,4.22-.54,6.38-.79a21.42,21.42,0,0,0,2.22-.32,3.72,3.72,0,0,0,1.58-.66,3.2,3.2,0,0,0,1-1.3,5.68,5.68,0,0,0,.34-2.16,7.37,7.37,0,0,0-.66-3.33,5.4,5.4,0,0,0-1.84-2.06,7.34,7.34,0,0,0-2.73-1.05,18.46,18.46,0,0,0-3.33-.28,10,10,0,0,0-6.21,1.81c-1.61,1.2-2.46,3.14-2.54,5.8h-4A13.34,13.34,0,0,1,480.89,1206.25Zm20,9.77a2.28,2.28,0,0,1-1.46,1,14.49,14.49,0,0,1-1.9.45c-1.7.29-3.44.56-5.24.79a28.07,28.07,0,0,0-4.91,1,9.49,9.49,0,0,0-3.65,2,4.76,4.76,0,0,0-1.43,3.71,5.7,5.7,0,0,0,.61,2.69,6.61,6.61,0,0,0,1.61,2,7,7,0,0,0,2.35,1.3,8.49,8.49,0,0,0,2.73.45,13.84,13.84,0,0,0,4.37-.7,10.82,10.82,0,0,0,3.65-2,9.77,9.77,0,0,0,2.47-3.24,9.64,9.64,0,0,0,.92-4.31V1216Z" transform="translate(-389.97 -486.96)"/><path class="cls-1" d="M526,1201.86v3.36h-6.66v22.07a7.15,7.15,0,0,0,.54,3.08c.36.74,1.26,1.15,2.7,1.24a32.66,32.66,0,0,0,3.42-.19v3.36q-.88,0-1.77.06c-.59,0-1.19.07-1.78.07q-4,0-5.58-1.56c-1.06-1-1.56-2.95-1.52-5.74v-22.39h-5.71v-3.36h5.71V1187.5h4v14.36Z" transform="translate(-389.97 -486.96)"/><path class="cls-1" d="M534.7,1223.09a12.42,12.42,0,0,0,1.94,4.16,11.15,11.15,0,0,0,3.36,3,9.42,9.42,0,0,0,4.88,1.21,9.71,9.71,0,0,0,6.85-2.29,12,12,0,0,0,3.43-6.09h4a16,16,0,0,1-4.67,8.63q-3.39,3-9.61,3a15.21,15.21,0,0,1-6.69-1.36,12.44,12.44,0,0,1-4.6-3.74,16.41,16.41,0,0,1-2.63-5.52,25.1,25.1,0,0,1-.85-6.63,23.8,23.8,0,0,1,.85-6.34,17.13,17.13,0,0,1,2.63-5.55,13.23,13.23,0,0,1,4.6-3.93,14.06,14.06,0,0,1,6.69-1.49,13.48,13.48,0,0,1,6.73,1.58,13.32,13.32,0,0,1,4.53,4.16,17.12,17.12,0,0,1,2.51,5.9,25.52,25.52,0,0,1,.63,6.75H534.1A17.76,17.76,0,0,0,534.7,1223.09Zm19.79-12.21a11.89,11.89,0,0,0-2.06-3.71,10.24,10.24,0,0,0-3.23-2.6,9.35,9.35,0,0,0-4.32-1,9.47,9.47,0,0,0-4.37,1,10.28,10.28,0,0,0-3.24,2.6,13.27,13.27,0,0,0-2.12,3.74,18.4,18.4,0,0,0-1,4.35h21.19A14.63,14.63,0,0,0,554.49,1210.88Z" transform="translate(-389.97 -486.96)"/><path class="cls-1" d="M591.53,1239.2a12.74,12.74,0,0,1-2.5,4.94,10.85,10.85,0,0,1-4.47,3.11,18.6,18.6,0,0,1-6.76,1.08,20.37,20.37,0,0,1-4.82-.57,13.63,13.63,0,0,1-4.22-1.78,10.55,10.55,0,0,1-3.1-3.07,9.17,9.17,0,0,1-1.43-4.48h4a7.21,7.21,0,0,0,1.24,3.08,7.3,7.3,0,0,0,2.22,2,9.75,9.75,0,0,0,2.89,1.11,15.08,15.08,0,0,0,3.23.35q5.58,0,8.06-3.17c1.65-2.12,2.47-5.16,2.47-9.14v-4.44h-.13a11.7,11.7,0,0,1-4.09,4.89,11,11,0,0,1-6.31,1.84,15.92,15.92,0,0,1-6.72-1.3,12.61,12.61,0,0,1-4.6-3.59,14.69,14.69,0,0,1-2.63-5.36,25.24,25.24,0,0,1-.83-6.56,20.34,20.34,0,0,1,1-6.38,15.72,15.72,0,0,1,2.85-5.26,13.37,13.37,0,0,1,4.63-3.55,14.58,14.58,0,0,1,6.31-1.3,11.44,11.44,0,0,1,3.46.51,10.74,10.74,0,0,1,3,1.42,12.72,12.72,0,0,1,2.38,2.13,9.9,9.9,0,0,1,1.61,2.53h.13v-5.64h4v30.06A24.93,24.93,0,0,1,591.53,1239.2Zm-9.16-8.73a10.36,10.36,0,0,0,3.3-2.91,12.73,12.73,0,0,0,2-4.16,17.32,17.32,0,0,0,.67-4.82,20.94,20.94,0,0,0-.57-4.82,13.83,13.83,0,0,0-1.84-4.37,10,10,0,0,0-3.27-3.18,9.25,9.25,0,0,0-4.85-1.2,9.61,9.61,0,0,0-4.88,1.17,10.34,10.34,0,0,0-3.36,3.08,12.87,12.87,0,0,0-1.94,4.34,20.82,20.82,0,0,0-.6,5,18.48,18.48,0,0,0,.63,4.82,12.5,12.5,0,0,0,2,4.16,10.16,10.16,0,0,0,3.36,2.91,9.78,9.78,0,0,0,4.82,1.11A9,9,0,0,0,582.37,1230.47Z" transform="translate(-389.97 -486.96)"/><path class="cls-1" d="M604,1187.5v6.41h-4v-6.41Zm0,12.56v34.85h-4v-34.85Z" transform="translate(-389.97 -486.96)"/><path class="cls-1" d="M614.62,1223.09a12.23,12.23,0,0,0,1.94,4.16,10.92,10.92,0,0,0,3.36,3,9.42,9.42,0,0,0,4.88,1.21,9.73,9.73,0,0,0,6.85-2.29,12,12,0,0,0,3.43-6.09h4a16,16,0,0,1-4.66,8.63q-3.39,3-9.61,3a15.21,15.21,0,0,1-6.69-1.36,12.36,12.36,0,0,1-4.6-3.74,16.41,16.41,0,0,1-2.63-5.52,25.1,25.1,0,0,1-.86-6.63,23.81,23.81,0,0,1,.86-6.34,17.13,17.13,0,0,1,2.63-5.55,13.14,13.14,0,0,1,4.6-3.93,14.06,14.06,0,0,1,6.69-1.49,12.93,12.93,0,0,1,11.26,5.74,17.11,17.11,0,0,1,2.5,5.9,26,26,0,0,1,.64,6.75H614A17.76,17.76,0,0,0,614.62,1223.09Zm19.79-12.21a12.09,12.09,0,0,0-2.06-3.71,10.28,10.28,0,0,0-3.24-2.6,9.31,9.31,0,0,0-4.31-1,9.48,9.48,0,0,0-4.38,1,10.35,10.35,0,0,0-3.23,2.6,13.05,13.05,0,0,0-2.13,3.74,18.88,18.88,0,0,0-1,4.35H635.2A14.62,14.62,0,0,0,634.41,1210.88Z" transform="translate(-389.97 -486.96)"/><path class="cls-1" d="M663.43,1207.55a6.52,6.52,0,0,0-1.87-2.25,8.06,8.06,0,0,0-2.7-1.3,12.48,12.48,0,0,0-3.23-.41,13.17,13.17,0,0,0-2.7.28,8.52,8.52,0,0,0-2.51,1,5.51,5.51,0,0,0-1.84,1.75,4.85,4.85,0,0,0-.69,2.66,3.74,3.74,0,0,0,.66,2.25,6,6,0,0,0,1.68,1.56,11.33,11.33,0,0,0,2.22,1q1.21.4,2.22.66L660,1216a15,15,0,0,1,3.39.92,10.91,10.91,0,0,1,3,1.74,8.69,8.69,0,0,1,2.12,2.66,8,8,0,0,1,.83,3.75,8.23,8.23,0,0,1-1.21,4.53,9.85,9.85,0,0,1-3.08,3,13.08,13.08,0,0,1-4.21,1.68,22.46,22.46,0,0,1-4.63.5,15,15,0,0,1-9.36-2.72q-3.58-2.73-4.09-8.76h4a7.86,7.86,0,0,0,2.94,6.12,10.68,10.68,0,0,0,6.7,2.07,15.19,15.19,0,0,0,3-.32,9.68,9.68,0,0,0,2.89-1.08,7,7,0,0,0,2.18-1.93,4.8,4.8,0,0,0,.86-2.89,4.6,4.6,0,0,0-.6-2.44,5.2,5.2,0,0,0-1.62-1.65,10.18,10.18,0,0,0-2.32-1.11,26.37,26.37,0,0,0-2.63-.76l-5.14-1.14a28.32,28.32,0,0,1-3.61-1.18,11.41,11.41,0,0,1-2.89-1.65,6.78,6.78,0,0,1-1.93-2.41,8.91,8.91,0,0,1,.41-7.77,8.65,8.65,0,0,1,2.89-2.85,13.36,13.36,0,0,1,4-1.59,19.69,19.69,0,0,1,4.35-.5,16,16,0,0,1,4.59.63,10.52,10.52,0,0,1,3.75,2,9.78,9.78,0,0,1,2.57,3.3,11.82,11.82,0,0,1,1.07,4.63h-4A7.74,7.74,0,0,0,663.43,1207.55Z" transform="translate(-389.97 -486.96)"/><path class="cls-1" d="M698.88,1203.42v31.49h-4v-31.49H689.3v-3.36h5.59v-3a22.15,22.15,0,0,1,.31-3.87,7.44,7.44,0,0,1,1.21-3,5.75,5.75,0,0,1,2.44-2,9.65,9.65,0,0,1,4-.7c.6,0,1.14,0,1.65.06l1.72.19v3.43l-1.53-.22a9.29,9.29,0,0,0-1.39-.1,5.16,5.16,0,0,0-2.54.51,3.1,3.1,0,0,0-1.3,1.36,5.3,5.3,0,0,0-.48,2c0,.76-.06,1.59-.06,2.47v2.86h6.47v3.36Z" transform="translate(-389.97 -486.96)"/><path class="cls-1" d="M729.61,1201.62a14.51,14.51,0,0,1,4.85,3.74,16.19,16.19,0,0,1,3,5.49,22.45,22.45,0,0,1,0,13.38,16,16,0,0,1-3,5.49,14.18,14.18,0,0,1-4.85,3.71,16.84,16.84,0,0,1-13.26,0,14.18,14.18,0,0,1-4.85-3.71,16.18,16.18,0,0,1-3-5.49,22.66,22.66,0,0,1,0-13.38,16.37,16.37,0,0,1,3-5.49,14.51,14.51,0,0,1,4.85-3.74,16.51,16.51,0,0,1,13.26,0ZM718,1204.79a11,11,0,0,0-3.58,3.17,14.66,14.66,0,0,0-2.16,4.48,18.22,18.22,0,0,0,0,10.21,14.49,14.49,0,0,0,2.16,4.47,10.92,10.92,0,0,0,3.58,3.17,11,11,0,0,0,10,0,11,11,0,0,0,3.59-3.17,14.25,14.25,0,0,0,2.15-4.47,18.22,18.22,0,0,0,0-10.21,14.41,14.41,0,0,0-2.15-4.48,11.07,11.07,0,0,0-3.59-3.17,11.06,11.06,0,0,0-10,0Z" transform="translate(-389.97 -486.96)"/><path class="cls-1" d="M748.1,1202v7.67h.13a12,12,0,0,1,12.36-8.12v4a12.11,12.11,0,0,0-4.94.73,10.93,10.93,0,0,0-6.35,6.22,12.59,12.59,0,0,0-.88,4.78v17.45h-4V1202Z" transform="translate(-389.97 -486.96)"/><path class="cls-1" d="M802.9,1187.5a16.31,16.31,0,0,1,5.52.89,11.38,11.38,0,0,1,7,6.92,17.52,17.52,0,0,1,0,11.38,11.71,11.71,0,0,1-2.72,4.27,11.56,11.56,0,0,1-4.25,2.64,16.06,16.06,0,0,1-5.52.9H787.1v20.25h-4.31V1187.5Zm-.95,23.16a10.83,10.83,0,0,0,7.29-2.38Q812,1205.9,812,1201c0-3.27-.93-5.69-2.79-7.28a10.83,10.83,0,0,0-7.29-2.38H787.1v19.32Z" transform="translate(-389.97 -486.96)"/><path class="cls-1" d="M825.67,1202v7.67h.12a12.6,12.6,0,0,1,4.73-6.15,12.38,12.38,0,0,1,7.64-2v4a12.09,12.09,0,0,0-4.94.73,10.93,10.93,0,0,0-6.35,6.22,12.59,12.59,0,0,0-.89,4.78v17.45h-4V1202Z" transform="translate(-389.97 -486.96)"/><path class="cls-1" d="M843.77,1223.09a12.42,12.42,0,0,0,1.94,4.16,11.15,11.15,0,0,0,3.36,3,9.42,9.42,0,0,0,4.88,1.21,9.75,9.75,0,0,0,6.86-2.29,12,12,0,0,0,3.42-6.09h4a15.89,15.89,0,0,1-4.66,8.63q-3.39,3-9.61,3a15.24,15.24,0,0,1-6.69-1.36,12.44,12.44,0,0,1-4.6-3.74,16.41,16.41,0,0,1-2.63-5.52,25.1,25.1,0,0,1-.85-6.63,23.8,23.8,0,0,1,.85-6.34,17.13,17.13,0,0,1,2.63-5.55,13.23,13.23,0,0,1,4.6-3.93,14.08,14.08,0,0,1,6.69-1.49,13.48,13.48,0,0,1,6.73,1.58,13.32,13.32,0,0,1,4.53,4.16,17.12,17.12,0,0,1,2.51,5.9,25.94,25.94,0,0,1,.63,6.75H843.17A17.76,17.76,0,0,0,843.77,1223.09Zm19.79-12.21a11.89,11.89,0,0,0-2.06-3.71,10.24,10.24,0,0,0-3.23-2.6,9.35,9.35,0,0,0-4.32-1,9.47,9.47,0,0,0-4.37,1,10.28,10.28,0,0,0-3.24,2.6,13.27,13.27,0,0,0-2.12,3.74,18.4,18.4,0,0,0-1.05,4.35h21.19A14.63,14.63,0,0,0,863.56,1210.88Z" transform="translate(-389.97 -486.96)"/><path class="cls-1" d="M893.79,1205.68a8.75,8.75,0,0,0-6.22-2.09,10.15,10.15,0,0,0-5,1.2A11,11,0,0,0,879,1208a14.43,14.43,0,0,0-2.16,4.48,18.22,18.22,0,0,0,0,10.21,14.27,14.27,0,0,0,2.16,4.47,10.92,10.92,0,0,0,3.58,3.17,10.15,10.15,0,0,0,5,1.21,9,9,0,0,0,3.49-.7,9.43,9.43,0,0,0,2.92-1.94,10.27,10.27,0,0,0,2.09-2.95,10.67,10.67,0,0,0,1-3.74h4a15.07,15.07,0,0,1-4.38,9.29,12.8,12.8,0,0,1-9.13,3.33,15.34,15.34,0,0,1-6.63-1.36,14.18,14.18,0,0,1-4.85-3.71,16.18,16.18,0,0,1-3-5.49,22.45,22.45,0,0,1,0-13.38,16.37,16.37,0,0,1,3-5.49,14.51,14.51,0,0,1,4.85-3.74,15.06,15.06,0,0,1,6.63-1.39,14.23,14.23,0,0,1,8.91,2.79q3.64,2.79,4.35,8.43h-4A11,11,0,0,0,893.79,1205.68Z" transform="translate(-389.97 -486.96)"/><path class="cls-1" d="M910.72,1187.5v6.41h-4v-6.41Zm0,12.56v34.85h-4v-34.85Z" transform="translate(-389.97 -486.96)"/><path class="cls-1" d="M937.23,1207.55a6.42,6.42,0,0,0-1.87-2.25,7.92,7.92,0,0,0-2.69-1.3,12.61,12.61,0,0,0-3.24-.41,13,13,0,0,0-2.69.28,8.42,8.42,0,0,0-2.51,1,5.51,5.51,0,0,0-1.84,1.75,4.85,4.85,0,0,0-.7,2.66,3.75,3.75,0,0,0,.67,2.25A5.71,5.71,0,0,0,924,1213a11.33,11.33,0,0,0,2.22,1q1.2.4,2.22.66l5.33,1.21a15,15,0,0,1,3.39.92,10.86,10.86,0,0,1,3,1.74,8.57,8.57,0,0,1,2.13,2.66,8,8,0,0,1,.82,3.75,8.23,8.23,0,0,1-1.2,4.53,10,10,0,0,1-3.08,3,13.14,13.14,0,0,1-4.22,1.68,22.38,22.38,0,0,1-4.63.5,15,15,0,0,1-9.35-2.72q-3.58-2.73-4.09-8.76h4a7.87,7.87,0,0,0,3,6.12,10.67,10.67,0,0,0,6.69,2.07,15.12,15.12,0,0,0,3-.32,9.57,9.57,0,0,0,2.89-1.08,6.93,6.93,0,0,0,2.19-1.93,4.8,4.8,0,0,0,.86-2.89,4.6,4.6,0,0,0-.61-2.44,5.17,5.17,0,0,0-1.61-1.65,10.18,10.18,0,0,0-2.32-1.11,27.17,27.17,0,0,0-2.63-.76l-5.14-1.14a27.81,27.81,0,0,1-3.61-1.18,11.24,11.24,0,0,1-2.89-1.65,6.81,6.81,0,0,1-1.94-2.41,8,8,0,0,1-.69-3.52,7.87,7.87,0,0,1,1.11-4.25,8.72,8.72,0,0,1,2.88-2.85,13.53,13.53,0,0,1,4-1.59,19.6,19.6,0,0,1,4.34-.5,16.14,16.14,0,0,1,4.6.63,10.48,10.48,0,0,1,3.74,2,9.53,9.53,0,0,1,2.57,3.3,11.82,11.82,0,0,1,1.08,4.63h-4A7.45,7.45,0,0,0,937.23,1207.55Z" transform="translate(-389.97 -486.96)"/><path class="cls-1" d="M953,1187.5v6.41h-4v-6.41Zm0,12.56v34.85h-4v-34.85Z" transform="translate(-389.97 -486.96)"/><path class="cls-1" d="M981.09,1201.62a14.51,14.51,0,0,1,4.85,3.74,16.19,16.19,0,0,1,3,5.49,22.45,22.45,0,0,1,0,13.38,16,16,0,0,1-3,5.49,14.18,14.18,0,0,1-4.85,3.71,16.82,16.82,0,0,1-13.25,0,14.12,14.12,0,0,1-4.86-3.71,16.18,16.18,0,0,1-3-5.49,22.66,22.66,0,0,1,0-13.38,16.37,16.37,0,0,1,3-5.49,14.45,14.45,0,0,1,4.86-3.74,16.48,16.48,0,0,1,13.25,0Zm-11.64,3.17a11,11,0,0,0-3.58,3.17,14.66,14.66,0,0,0-2.16,4.48,18.22,18.22,0,0,0,0,10.21,14.49,14.49,0,0,0,2.16,4.47,10.92,10.92,0,0,0,3.58,3.17,11,11,0,0,0,10,0,11,11,0,0,0,3.59-3.17,14.25,14.25,0,0,0,2.15-4.47,18.22,18.22,0,0,0,0-10.21,14.41,14.41,0,0,0-2.15-4.48,11.07,11.07,0,0,0-3.59-3.17,11.06,11.06,0,0,0-10,0Z" transform="translate(-389.97 -486.96)"/><path class="cls-1" d="M999.83,1202.18v5.64h.13A9.61,9.61,0,0,1,1004,1203a12,12,0,0,1,6.41-1.8,16,16,0,0,1,5.74.89,9.12,9.12,0,0,1,3.71,2.5,9.34,9.34,0,0,1,2,4,22.4,22.4,0,0,1,.57,5.27v21.06h-4v-20.43a19.25,19.25,0,0,0-.38-3.9,8.33,8.33,0,0,0-1.34-3.14,6.46,6.46,0,0,0-2.56-2.09,9.44,9.44,0,0,0-4-.76,10,10,0,0,0-4.28.86,9.19,9.19,0,0,0-3.17,2.34,10.77,10.77,0,0,0-2,3.55,14.36,14.36,0,0,0-.8,4.48v19.09h-4v-32.73Z" transform="translate(-389.97 -486.96)"/><path class="cls-1" d="M397,1254.66v20.42H423.9v-20.42h4.31v47H423.9v-22.8H397v22.8H392.7v-47Z" transform="translate(-389.97 -486.96)"/><path class="cls-1" d="M439.54,1290a12.25,12.25,0,0,0,1.93,4.15,11,11,0,0,0,3.36,3,9.34,9.34,0,0,0,4.89,1.21,9.74,9.74,0,0,0,6.85-2.28A12.11,12.11,0,0,0,460,1290h4a16,16,0,0,1-4.66,8.62q-3.4,3-9.61,3a15.29,15.29,0,0,1-6.7-1.37,12.14,12.14,0,0,1-4.59-3.74,16.06,16.06,0,0,1-2.64-5.52,25.07,25.07,0,0,1-.85-6.62,23.88,23.88,0,0,1,.85-6.35,17,17,0,0,1,2.64-5.55,13.31,13.31,0,0,1,4.59-3.93,14.24,14.24,0,0,1,6.7-1.49,13,13,0,0,1,11.25,5.74,17.12,17.12,0,0,1,2.51,5.9,25.52,25.52,0,0,1,.63,6.75H438.93A17.47,17.47,0,0,0,439.54,1290Zm19.79-12.21a11.89,11.89,0,0,0-2.07-3.71,10.16,10.16,0,0,0-3.23-2.61,9.34,9.34,0,0,0-4.31-1,9.48,9.48,0,0,0-4.38,1,10.31,10.31,0,0,0-3.24,2.61,13,13,0,0,0-2.12,3.74,18.21,18.21,0,0,0-1.05,4.34h21.19A14.5,14.5,0,0,0,459.33,1277.79Z" transform="translate(-389.97 -486.96)"/><path class="cls-1" d="M470.33,1273.16a9.34,9.34,0,0,1,2.76-3.43,11.7,11.7,0,0,1,4.09-2,20,20,0,0,1,5.2-.63,23.21,23.21,0,0,1,4.31.41,10.51,10.51,0,0,1,3.87,1.56,8.5,8.5,0,0,1,2.79,3.2,11.53,11.53,0,0,1,1.08,5.36V1295a2.1,2.1,0,0,0,2.35,2.41,3.1,3.1,0,0,0,1.27-.26v3.37l-1.24.19a12.78,12.78,0,0,1-1.36.06,6.18,6.18,0,0,1-2.45-.41,3.26,3.26,0,0,1-1.42-1.18,4.41,4.41,0,0,1-.67-1.8,16.36,16.36,0,0,1-.16-2.32h-.12a26.06,26.06,0,0,1-2.19,2.82A10.8,10.8,0,0,1,486,1300a11.19,11.19,0,0,1-3.1,1.26,16.86,16.86,0,0,1-4.16.45,16.35,16.35,0,0,1-4.28-.54,9.65,9.65,0,0,1-3.49-1.71,8.44,8.44,0,0,1-2.35-3,10,10,0,0,1-.85-4.29,8.5,8.5,0,0,1,1.52-5.36,9.63,9.63,0,0,1,4-2.94,22.6,22.6,0,0,1,5.64-1.43c2.1-.28,4.22-.54,6.38-.79.84-.09,1.58-.19,2.22-.32a3.86,3.86,0,0,0,1.58-.67,3.12,3.12,0,0,0,1-1.3,5.65,5.65,0,0,0,.35-2.15,7.3,7.3,0,0,0-.67-3.33,5.28,5.28,0,0,0-1.84-2.07,7.51,7.51,0,0,0-2.73-1,18.35,18.35,0,0,0-3.33-.29,10,10,0,0,0-6.21,1.81q-2.42,1.82-2.54,5.8h-4A13.24,13.24,0,0,1,470.33,1273.16Zm20,9.76a2.29,2.29,0,0,1-1.46,1,14.3,14.3,0,0,1-1.9.44c-1.69.3-3.44.56-5.24.8a29,29,0,0,0-4.91,1,9.63,9.63,0,0,0-3.65,2,4.77,4.77,0,0,0-1.43,3.71,5.77,5.77,0,0,0,.61,2.7,6.73,6.73,0,0,0,1.61,2,7.18,7.18,0,0,0,2.35,1.3,8.76,8.76,0,0,0,2.73.44,13.56,13.56,0,0,0,4.37-.7,10.56,10.56,0,0,0,3.65-2,9.62,9.62,0,0,0,3.4-7.55v-5.2Z" transform="translate(-389.97 -486.96)"/><path class="cls-1" d="M506.42,1254.66v47h-4v-47Z" transform="translate(-389.97 -486.96)"/><path class="cls-1" d="M527.16,1268.65V1272H520.5v22.08a7.13,7.13,0,0,0,.54,3.07c.36.74,1.26,1.15,2.69,1.24a30.33,30.33,0,0,0,3.43-.19v3.36c-.59,0-1.19,0-1.78.06s-1.18.07-1.77.07q-4,0-5.59-1.56c-1-1-1.56-3-1.52-5.74V1272h-5.71v-3.36h5.71v-14h4v14Z" transform="translate(-389.97 -486.96)"/><path class="cls-1" d="M536.86,1254.56v20.16H537a9.53,9.53,0,0,1,4.06-4.79,11.87,11.87,0,0,1,6.4-1.81,16.13,16.13,0,0,1,5.74.89,9,9,0,0,1,3.71,2.5,9.34,9.34,0,0,1,2,4,22.31,22.31,0,0,1,.57,5.26v21.06h-4v-20.42a19.28,19.28,0,0,0-.38-3.91,8.33,8.33,0,0,0-1.34-3.14,6.51,6.51,0,0,0-2.57-2.09,9.36,9.36,0,0,0-4-.76,10.16,10.16,0,0,0-4.28.86,9.33,9.33,0,0,0-3.18,2.34,11.07,11.07,0,0,0-2,3.56,14.54,14.54,0,0,0-.79,4.47v19.09h-4v-47.24Z" transform="translate(-389.97 -486.96)"/><path class="cls-1" d="M588.68,1254.66v6.41h-4v-6.41Zm0,12.56v34.48h-4v-34.48Z" transform="translate(-389.97 -486.96)"/><path class="cls-1" d="M600.29,1269v5.64h.12a9.65,9.65,0,0,1,4.06-4.78,11.9,11.9,0,0,1,6.41-1.81,16,16,0,0,1,5.74.89,9.06,9.06,0,0,1,3.71,2.5,9.34,9.34,0,0,1,2,4,22.31,22.31,0,0,1,.57,5.26v21.06h-4v-20.43a19.25,19.25,0,0,0-.38-3.9,8.31,8.31,0,0,0-1.33-3.14,6.58,6.58,0,0,0-2.57-2.09,9.41,9.41,0,0,0-4-.76,10.19,10.19,0,0,0-4.28.86,9.29,9.29,0,0,0-3.17,2.34,10.94,10.94,0,0,0-2,3.55,14.36,14.36,0,0,0-.79,4.48v19.09h-4V1269Z" transform="translate(-389.97 -486.96)"/><path class="cls-1" d="M668,1254.66a26.62,26.62,0,0,1,5.49.56,13,13,0,0,1,4.63,1.91,10,10,0,0,1,3.2,3.56,11.39,11.39,0,0,1,1.21,5.5,11.2,11.2,0,0,1-.58,3.59,11,11,0,0,1-1.61,3.16,10.32,10.32,0,0,1-2.48,2.41,9.09,9.09,0,0,1-3.2,1.38v.13a10.61,10.61,0,0,1,7,3.72,11.74,11.74,0,0,1,2.6,7.74,18.69,18.69,0,0,1-.19,2.54,13,13,0,0,1-.76,2.9,12.17,12.17,0,0,1-1.65,2.93,9.87,9.87,0,0,1-2.89,2.54,17.32,17.32,0,0,1-4.44,1.78,25.14,25.14,0,0,1-6.31.69H648.81v-47Zm0,20.62a14.33,14.33,0,0,0,4.5-.63,9.11,9.11,0,0,0,3.18-1.71,7,7,0,0,0,1.9-2.54,7.62,7.62,0,0,0,.63-3.09q0-8.83-10.21-8.83H653.12v16.8Zm0,22.6a23.87,23.87,0,0,0,4.57-.43,10.22,10.22,0,0,0,3.8-1.55,7.82,7.82,0,0,0,2.6-3,10.28,10.28,0,0,0,1-4.71,8,8,0,0,0-3.08-6.82q-3.07-2.26-8.85-2.27H653.12v18.78Z" transform="translate(-389.97 -486.96)"/><path class="cls-1" d="M694,1269v7.67h.13a12.58,12.58,0,0,1,4.72-6.15,12.33,12.33,0,0,1,7.64-2v4a12.14,12.14,0,0,0-4.94.73,10.93,10.93,0,0,0-6.35,6.22,12.64,12.64,0,0,0-.88,4.79v17.44h-4V1269Z" transform="translate(-389.97 -486.96)"/><path class="cls-1" d="M712.14,1290a12.25,12.25,0,0,0,1.93,4.15,11,11,0,0,0,3.36,3,9.36,9.36,0,0,0,4.89,1.21,9.74,9.74,0,0,0,6.85-2.28,12,12,0,0,0,3.42-6.09h4a16,16,0,0,1-4.66,8.62q-3.4,3-9.61,3a15.21,15.21,0,0,1-6.69-1.37,12.1,12.1,0,0,1-4.6-3.74,16.25,16.25,0,0,1-2.64-5.52,25.07,25.07,0,0,1-.85-6.62,23.88,23.88,0,0,1,.85-6.35,17.15,17.15,0,0,1,2.64-5.55,13.25,13.25,0,0,1,4.6-3.93,14.17,14.17,0,0,1,6.69-1.49,13,13,0,0,1,11.25,5.74,17.12,17.12,0,0,1,2.51,5.9,25.52,25.52,0,0,1,.63,6.75H711.53A17.47,17.47,0,0,0,712.14,1290Zm19.79-12.21a11.89,11.89,0,0,0-2.07-3.71,10.16,10.16,0,0,0-3.23-2.61,9.34,9.34,0,0,0-4.31-1,9.48,9.48,0,0,0-4.38,1,10.16,10.16,0,0,0-3.23,2.61,12.79,12.79,0,0,0-2.13,3.74,18.21,18.21,0,0,0-1.05,4.34h21.19A14.5,14.5,0,0,0,731.93,1277.79Z" transform="translate(-389.97 -486.96)"/><path class="cls-1" d="M742.93,1273.16a9.44,9.44,0,0,1,2.76-3.43,11.79,11.79,0,0,1,4.09-2,20,20,0,0,1,5.2-.63,23.21,23.21,0,0,1,4.31.41,10.51,10.51,0,0,1,3.87,1.56,8.42,8.42,0,0,1,2.79,3.2,11.53,11.53,0,0,1,1.08,5.36V1295a2.1,2.1,0,0,0,2.35,2.41,3.1,3.1,0,0,0,1.27-.26v3.37l-1.24.19a12.65,12.65,0,0,1-1.36.06,6.18,6.18,0,0,1-2.45-.41,3.32,3.32,0,0,1-1.42-1.18,4.41,4.41,0,0,1-.67-1.8,16.36,16.36,0,0,1-.16-2.32h-.12a26.06,26.06,0,0,1-2.19,2.82,10.8,10.8,0,0,1-2.48,2.07,11.19,11.19,0,0,1-3.1,1.26,16.86,16.86,0,0,1-4.16.45,16.35,16.35,0,0,1-4.28-.54,9.73,9.73,0,0,1-3.49-1.71,8.31,8.31,0,0,1-2.34-3,10,10,0,0,1-.86-4.29,8.5,8.5,0,0,1,1.52-5.36,9.63,9.63,0,0,1,4-2.94,22.6,22.6,0,0,1,5.64-1.43c2.1-.28,4.22-.54,6.38-.79.84-.09,1.58-.19,2.22-.32a3.86,3.86,0,0,0,1.58-.67,3.12,3.12,0,0,0,1-1.3,5.65,5.65,0,0,0,.35-2.15,7.3,7.3,0,0,0-.67-3.33,5.28,5.28,0,0,0-1.84-2.07,7.51,7.51,0,0,0-2.73-1,18.35,18.35,0,0,0-3.33-.29,10,10,0,0,0-6.21,1.81c-1.61,1.21-2.45,3.14-2.54,5.8h-4A13.24,13.24,0,0,1,742.93,1273.16Zm20,9.76a2.26,2.26,0,0,1-1.46,1,14.3,14.3,0,0,1-1.9.44c-1.69.3-3.44.56-5.24.8a29,29,0,0,0-4.91,1,9.63,9.63,0,0,0-3.65,2,4.76,4.76,0,0,0-1.42,3.71,5.89,5.89,0,0,0,.6,2.7,6.61,6.61,0,0,0,1.62,2,7,7,0,0,0,2.34,1.3,8.76,8.76,0,0,0,2.73.44,13.67,13.67,0,0,0,4.38-.7,10.61,10.61,0,0,0,3.64-2,9.62,9.62,0,0,0,3.4-7.55v-5.2Z" transform="translate(-389.97 -486.96)"/><path class="cls-1" d="M793.86,1274.46a6.54,6.54,0,0,0-1.87-2.26,7.88,7.88,0,0,0-2.7-1.3,12.48,12.48,0,0,0-3.23-.41,13.19,13.19,0,0,0-2.7.29,8.36,8.36,0,0,0-2.5,1,5.39,5.39,0,0,0-1.84,1.74,4.78,4.78,0,0,0-.7,2.67,3.7,3.7,0,0,0,.67,2.25,5.81,5.81,0,0,0,1.68,1.55,9.87,9.87,0,0,0,2.22,1c.8.27,1.54.5,2.22.67l5.33,1.2a15.52,15.52,0,0,1,3.39.92,11.11,11.11,0,0,1,3,1.74,8.33,8.33,0,0,1,2.12,2.67,8,8,0,0,1,.83,3.74,8.24,8.24,0,0,1-1.2,4.54,10,10,0,0,1-3.08,3,13.23,13.23,0,0,1-4.22,1.68,21.74,21.74,0,0,1-4.63.51,15,15,0,0,1-9.35-2.73q-3.59-2.73-4.1-8.75h4a7.88,7.88,0,0,0,3,6.12,10.73,10.73,0,0,0,6.69,2.06,15.12,15.12,0,0,0,3-.32,9.57,9.57,0,0,0,2.89-1.08,6.81,6.81,0,0,0,2.19-1.93,4.76,4.76,0,0,0,.85-2.89,4.62,4.62,0,0,0-.6-2.44,5.31,5.31,0,0,0-1.62-1.65,10.32,10.32,0,0,0-2.31-1.11c-.87-.29-1.75-.55-2.63-.76l-5.14-1.14a30.2,30.2,0,0,1-3.62-1.17,11.79,11.79,0,0,1-2.88-1.65,7,7,0,0,1-1.94-2.41,8.06,8.06,0,0,1-.69-3.52,7.85,7.85,0,0,1,1.11-4.25,8.65,8.65,0,0,1,2.88-2.86,13.8,13.8,0,0,1,4-1.58,19,19,0,0,1,4.34-.51,16.14,16.14,0,0,1,4.6.63,10.72,10.72,0,0,1,3.74,2,9.63,9.63,0,0,1,2.57,3.3,12,12,0,0,1,1.08,4.63h-4A7.4,7.4,0,0,0,793.86,1274.46Z" transform="translate(-389.97 -486.96)"/><path class="cls-1" d="M818.53,1268.74v3.36h-6.66v22.07a7.18,7.18,0,0,0,.54,3.08c.36.74,1.26,1.15,2.7,1.24a32.66,32.66,0,0,0,3.42-.19v3.36q-.88,0-1.77.06c-.6,0-1.19.06-1.78.06-2.66,0-4.52-.51-5.58-1.55s-1.57-3-1.52-5.74V1272.1h-5.71v-3.36h5.71v-14.08h4v14.08Z" transform="translate(-389.97 -486.96)"/><path class="cls-1" d="M873.93,1264.65a12.66,12.66,0,0,0-3.17-3.46,13.88,13.88,0,0,0-4.12-2.12,15.13,15.13,0,0,0-4.72-.73,16.32,16.32,0,0,0-7.74,1.71,15.35,15.35,0,0,0-5.3,4.53,19.6,19.6,0,0,0-3,6.38,27.26,27.26,0,0,0,0,14.56,19.51,19.51,0,0,0,3,6.4,15.38,15.38,0,0,0,5.3,4.54,16.32,16.32,0,0,0,7.74,1.71,13.75,13.75,0,0,0,5.7-1.14,13.59,13.59,0,0,0,4.38-3.11,15.78,15.78,0,0,0,3-4.6,19.14,19.14,0,0,0,1.46-5.68h4.31a24.34,24.34,0,0,1-2,7.55,18.55,18.55,0,0,1-3.94,5.71,16.58,16.58,0,0,1-5.67,3.62,20,20,0,0,1-7.26,1.26,21.38,21.38,0,0,1-9.36-1.93,19.37,19.37,0,0,1-6.69-5.17,22,22,0,0,1-4-7.48,30.75,30.75,0,0,1,0-17.89,22.37,22.37,0,0,1,4-7.52,19.33,19.33,0,0,1,6.69-5.2,22.72,22.72,0,0,1,15.67-1,18.34,18.34,0,0,1,5.58,2.82A16.44,16.44,0,0,1,878,1263a15.54,15.54,0,0,1,2.13,6.28h-4.31A14.39,14.39,0,0,0,873.93,1264.65Z" transform="translate(-389.97 -486.96)"/><path class="cls-1" d="M887.41,1273.24a9.49,9.49,0,0,1,2.76-3.42,11.61,11.61,0,0,1,4.09-2,20.08,20.08,0,0,1,5.2-.63,23.4,23.4,0,0,1,4.32.41,10.47,10.47,0,0,1,3.87,1.55,8.46,8.46,0,0,1,2.79,3.21,11.66,11.66,0,0,1,1.07,5.36v17.37a2.11,2.11,0,0,0,2.35,2.41,3.06,3.06,0,0,0,1.27-.25v3.36c-.47.09-.88.15-1.24.19a10.26,10.26,0,0,1-1.36.07,5.91,5.91,0,0,1-2.44-.42,3.2,3.2,0,0,1-1.43-1.17,4.46,4.46,0,0,1-.67-1.81,16.3,16.3,0,0,1-.15-2.31h-.13a27.08,27.08,0,0,1-2.19,2.82,11,11,0,0,1-2.47,2.06,11.59,11.59,0,0,1-3.11,1.27,16.85,16.85,0,0,1-4.16.44,16.4,16.4,0,0,1-4.28-.54,9.42,9.42,0,0,1-3.49-1.71,8.14,8.14,0,0,1-2.34-3,9.9,9.9,0,0,1-.86-4.28,8.5,8.5,0,0,1,1.52-5.36,9.65,9.65,0,0,1,4-3,23.46,23.46,0,0,1,5.65-1.43c2.09-.27,4.21-.54,6.37-.79a20.65,20.65,0,0,0,2.22-.32,3.76,3.76,0,0,0,1.59-.66,3.1,3.1,0,0,0,1-1.3,5.67,5.67,0,0,0,.35-2.16,7.23,7.23,0,0,0-.67-3.33,5.24,5.24,0,0,0-1.84-2.06,7.36,7.36,0,0,0-2.72-1.05,18.54,18.54,0,0,0-3.33-.28,10.07,10.07,0,0,0-6.22,1.81c-1.61,1.2-2.45,3.14-2.54,5.8h-4A13.34,13.34,0,0,1,887.41,1273.24Zm20,9.77a2.3,2.3,0,0,1-1.46,1,16.07,16.07,0,0,1-1.9.44c-1.69.3-3.44.56-5.23.79a28,28,0,0,0-4.92,1,9.57,9.57,0,0,0-3.65,2,4.75,4.75,0,0,0-1.42,3.71,5.82,5.82,0,0,0,.6,2.69,6.49,6.49,0,0,0,1.62,2,7,7,0,0,0,2.34,1.3,8.49,8.49,0,0,0,2.73.45,14,14,0,0,0,4.38-.7,10.92,10.92,0,0,0,3.65-2,9.91,9.91,0,0,0,2.47-3.24,9.78,9.78,0,0,0,.92-4.31V1283Z" transform="translate(-389.97 -486.96)"/><path class="cls-1" d="M923.44,1269.06v5.64h.12a9.67,9.67,0,0,1,4.06-4.79,12,12,0,0,1,6.41-1.8,16.19,16.19,0,0,1,5.74.88,9.17,9.17,0,0,1,3.71,2.51,9.36,9.36,0,0,1,2,4,22.4,22.4,0,0,1,.57,5.27v21h-4v-20.42a19.18,19.18,0,0,0-.38-3.9,8.25,8.25,0,0,0-1.33-3.14,6.49,6.49,0,0,0-2.57-2.09,9.41,9.41,0,0,0-4-.76,10.19,10.19,0,0,0-4.28.85,9.31,9.31,0,0,0-3.17,2.35,10.84,10.84,0,0,0-2,3.55,14.35,14.35,0,0,0-.79,4.47v19.09h-4v-32.72Z" transform="translate(-389.97 -486.96)"/><path class="cls-1" d="M973.61,1272.67a8.73,8.73,0,0,0-6.22-2.09,10.15,10.15,0,0,0-5,1.2,11.15,11.15,0,0,0-3.58,3.17,14.66,14.66,0,0,0-2.16,4.48,18.22,18.22,0,0,0,0,10.21,14.49,14.49,0,0,0,2.16,4.47,10.92,10.92,0,0,0,3.58,3.17,10.15,10.15,0,0,0,5,1.21,9,9,0,0,0,3.49-.7,9.43,9.43,0,0,0,2.92-1.94,10.27,10.27,0,0,0,2.09-2.95,10.9,10.9,0,0,0,1-3.74h4a15.07,15.07,0,0,1-4.38,9.29,12.8,12.8,0,0,1-9.13,3.33,15.37,15.37,0,0,1-6.63-1.36,14.06,14.06,0,0,1-4.85-3.71,16.18,16.18,0,0,1-3-5.49,22.66,22.66,0,0,1,0-13.38,16.37,16.37,0,0,1,3-5.49,14.51,14.51,0,0,1,4.85-3.74,15.09,15.09,0,0,1,6.63-1.39,14.23,14.23,0,0,1,8.91,2.79q3.65,2.79,4.35,8.43h-4A11,11,0,0,0,973.61,1272.67Z" transform="translate(-389.97 -486.96)"/><path class="cls-1" d="M989.43,1290.08a12.23,12.23,0,0,0,1.94,4.16,10.92,10.92,0,0,0,3.36,3,9.42,9.42,0,0,0,4.88,1.21,9.68,9.68,0,0,0,6.85-2.29,12,12,0,0,0,3.43-6.09h4a16,16,0,0,1-4.66,8.63q-3.39,3-9.61,3a15.21,15.21,0,0,1-6.69-1.36,12.44,12.44,0,0,1-4.6-3.74,16.41,16.41,0,0,1-2.63-5.52,25.1,25.1,0,0,1-.86-6.63,23.81,23.81,0,0,1,.86-6.34,17.13,17.13,0,0,1,2.63-5.55,13.23,13.23,0,0,1,4.6-3.93,14.06,14.06,0,0,1,6.69-1.49,12.89,12.89,0,0,1,11.26,5.74,17.32,17.32,0,0,1,2.51,5.9,26.38,26.38,0,0,1,.63,6.75H988.83A17.76,17.76,0,0,0,989.43,1290.08Zm19.79-12.21a12.09,12.09,0,0,0-2.06-3.71,10.35,10.35,0,0,0-3.23-2.6,10.12,10.12,0,0,0-8.69,0,10.28,10.28,0,0,0-3.24,2.6,12.8,12.8,0,0,0-2.12,3.74,18.4,18.4,0,0,0-1,4.35H1010A14.31,14.31,0,0,0,1009.22,1277.87Z" transform="translate(-389.97 -486.96)"/><path class="cls-1" d="M1023.08,1269v7.67h.13a12.58,12.58,0,0,1,4.72-6.15,12.33,12.33,0,0,1,7.64-2v4a12.14,12.14,0,0,0-4.94.73,10.93,10.93,0,0,0-6.35,6.22,12.64,12.64,0,0,0-.88,4.79v17.44h-4V1269Z" transform="translate(-389.97 -486.96)"/></svg>