<svg id="Layer_1" data-name="Layer 1" xmlns="http://www.w3.org/2000/svg" xmlns:xlink="http://www.w3.org/1999/xlink" viewBox="0 0 1395.49 382.81"><defs><style>.cls-1{fill:#231f20;}.cls-2{fill:#fff;}.cls-2,.cls-3,.cls-4,.cls-5{stroke:#fff;stroke-miterlimit:10;stroke-width:4px;}.cls-3{fill:url(#linear-gradient);}.cls-4{fill:url(#linear-gradient-2);}.cls-5{fill:url(#linear-gradient-3);}</style><linearGradient id="linear-gradient" x1="1099.92" y1="1513.42" x2="789.92" y2="1381.7" gradientTransform="matrix(0.87, -0.48, -0.48, -0.87, 433.13, 2169.88)" gradientUnits="userSpaceOnUse"><stop offset="0" stop-color="#bcbcbb" stop-opacity="0.5"/><stop offset="0.81" stop-color="#221f1f"/></linearGradient><linearGradient id="linear-gradient-2" x1="879.7" y1="1204.41" x2="1127.32" y2="1419.84" gradientTransform="matrix(0.87, -0.48, -0.48, -0.87, 433.13, 2169.88)" gradientUnits="userSpaceOnUse"><stop offset="0" stop-color="#bcbcbb" stop-opacity="0.5"/><stop offset="0.84" stop-color="#221f1f"/></linearGradient><linearGradient id="linear-gradient-3" x1="934.32" y1="1413.37" x2="632.26" y2="1285.03" gradientTransform="matrix(0.87, -0.48, -0.48, -0.87, 433.13, 2169.88)" gradientUnits="userSpaceOnUse"><stop offset="0" stop-color="#bcbcbb" stop-opacity="0.5"/><stop offset="0.77" stop-color="#221f1f"/></linearGradient></defs><title>sphere_logo_grey_horizontal_b</title><path class="cls-1" d="M877.1,432.5c1.1,7.7,3.2,13.5,6.5,17.4,5.9,7,15.9,10.5,30.2,10.5,8.5,0,15.5-.9,20.8-2.8,10.1-3.5,15.2-10.1,15.2-19.7,0-5.6-2.5-9.9-7.4-13s-12.8-5.7-23.5-7.9l-18.3-4c-18-4-30.4-8.3-37.2-13-11.4-7.8-17.1-20-17.1-36.7q0-22.8,16.8-37.8c11.2-10,27.6-15.1,49.2-15.1q27.15,0,46.3,14.2t20.1,41.2h-34c-.6-10.2-5.2-17.4-13.7-21.7-5.7-2.8-12.7-4.3-21.1-4.3-9.3,0-16.8,1.8-22.4,5.5a17.55,17.55,0,0,0-8.4,15.4c0,6,2.8,10.6,8.3,13.6,3.5,2,11,4.3,22.5,7l29.7,7c13,3.1,22.8,7.2,29.3,12.3,10.1,8,15.2,19.5,15.2,34.6,0,15.5-6,28.4-18,38.6s-28.9,15.3-50.7,15.4q-33.45,0-52.7-15.1c-12.8-10.1-19.2-23.9-19.2-41.6Z" transform="translate(-376.91 -308.43)"/><path class="cls-1" d="M1122.4,411.8c-9.9,8.8-24.1,13.2-42.5,13.2h-35.3v64.3h-35.2v-179h72.8c16.8,0,30.2,4.6,40.1,13.8s15,23.5,15,42.8C1137.3,388.1,1132.3,403,1122.4,411.8Zm-27-64.5c-4.5-4-10.8-6-18.8-6h-31.9V394h31.9c8.1,0,14.4-2.1,18.8-6.4s6.7-11.1,6.7-20.4-2.2-15.9-6.7-19.9Z" transform="translate(-376.91 -308.43)"/><path class="cls-1" d="M1163.2,489.2V310.4h35.2v68.2h65.9V310.4h35.2V489.2h-35.2V409.4h-65.9v79.8Z" transform="translate(-376.91 -308.43)"/><path class="cls-1" d="M1454.1,342.1h-94v38h82.3v31h-82.3v46h93.8v32.1H1325.5V310.4h128.6Z" transform="translate(-376.91 -308.43)"/><path class="cls-1" d="M1587.6,315a42.19,42.19,0,0,1,15.9,12.5,54.32,54.32,0,0,1,8.5,15,52.28,52.28,0,0,1,3.1,18.8,55.58,55.58,0,0,1-6.1,25q-6.15,12.3-20.1,17.4c7.8,3.3,13.4,8,16.6,14.1s4.9,15.4,4.9,28v12c0,8.2.3,13.7.9,16.6a15,15,0,0,0,6.5,10.2v4.5h-39.1c-1.1-4-1.8-7.2-2.3-9.6a99.17,99.17,0,0,1-1.5-15.4l-.2-16.6c-.2-11.4-2-19-5.6-22.8s-10.3-5.7-20.2-5.7h-34.6v70.1h-34.6V310.4h81.1C1572.4,310.6,1581.3,312.2,1587.6,315Zm-73.2,26.5v48h38.1c7.6,0,13.2-1,17-2.9,6.7-3.4,10-10.1,10-20.1,0-10.8-3.2-18.1-9.7-21.8-3.6-2.1-9.1-3.1-16.4-3.1Z" transform="translate(-376.91 -308.43)"/><path class="cls-1" d="M1772.4,342.1h-94v38h82.3v31h-82.3v46h93.8v32.1H1643.8V310.4h128.6Z" transform="translate(-376.91 -308.43)"/><path class="cls-2" d="M521.6,324.54a112.45,112.45,0,0,0-49.76,140.57H472a106,106,0,0,1,21.4-1.65h.29a119.27,119.27,0,0,1,21.1,2.42l.39.1a114.06,114.06,0,0,1,20,6.29l.49.19a113.07,113.07,0,0,1,18.39,9.88l.58.39A113.84,113.84,0,0,1,571,496.18l.58.58A112.22,112.22,0,0,1,590,521.35a104,104,0,0,1,5.91,12.4,112.51,112.51,0,0,0-39-221.61,106.37,106.37,0,0,0-35.24,12.4Z" transform="translate(-376.91 -308.43)"/><path class="cls-3" d="M521.6,324.54a112.45,112.45,0,0,0-49.76,140.57H472a106,106,0,0,1,21.4-1.65h.29a119.27,119.27,0,0,1,21.1,2.42l.39.1a114.06,114.06,0,0,1,20,6.29l.49.19a113.07,113.07,0,0,1,18.39,9.88l.58.39A113.84,113.84,0,0,1,571,496.18l.58.58A112.22,112.22,0,0,1,590,521.35a104,104,0,0,1,5.91,12.4,112.51,112.51,0,0,0-39-221.61,106.37,106.37,0,0,0-35.24,12.4Z" transform="translate(-376.91 -308.43)"/><path class="cls-2" d="M680.18,465.78a112.52,112.52,0,0,1-123.82,68.06,112.53,112.53,0,1,0,146.86-61.28A105,105,0,0,0,680.18,465.78Z" transform="translate(-376.91 -308.43)"/><path class="cls-4" d="M680.18,465.78a112.52,112.52,0,0,1-123.82,68.06,112.53,112.53,0,1,0,146.86-61.28A105,105,0,0,0,680.18,465.78Z" transform="translate(-376.91 -308.43)"/><path class="cls-2" d="M562,631A112.28,112.28,0,0,1,576.2,502a112.34,112.34,0,1,0-.48,148.61A115.72,115.72,0,0,1,562,631Z" transform="translate(-376.91 -308.43)"/><path class="cls-5" d="M562,631A112.28,112.28,0,0,1,576.2,502a112.34,112.34,0,1,0-.48,148.61A115.72,115.72,0,0,1,562,631Z" transform="translate(-376.91 -308.43)"/><path class="cls-1" d="M862.57,580.37a13.75,13.75,0,0,0,4.52,5.39,18.9,18.9,0,0,0,6.81,2.88,38.83,38.83,0,0,0,8.41.87,23.64,23.64,0,0,0,5.57-.73,19.7,19.7,0,0,0,5.62-2.33,14.55,14.55,0,0,0,4.34-4.11,10.49,10.49,0,0,0,1.73-6.08,8.91,8.91,0,0,0-1.23-4.75,11.21,11.21,0,0,0-3.2-3.38,18.93,18.93,0,0,0-4.34-2.24,43.16,43.16,0,0,0-4.66-1.42l-14.52-3.56a43.67,43.67,0,0,1-5.53-1.83,15.66,15.66,0,0,1-4.71-2.92,13.84,13.84,0,0,1-3.24-4.48,15.32,15.32,0,0,1-1.23-6.48,20.7,20.7,0,0,1,.91-5.58,15.48,15.48,0,0,1,3.43-6,20,20,0,0,1,6.89-4.79,27.66,27.66,0,0,1,11.24-2,32.88,32.88,0,0,1,9.23,1.28,22.76,22.76,0,0,1,7.67,3.84,18.43,18.43,0,0,1,7.22,15.16h-6.21a15.18,15.18,0,0,0-1.69-6.53,14.7,14.7,0,0,0-3.93-4.66,17.33,17.33,0,0,0-5.57-2.83,22.62,22.62,0,0,0-6.63-1,27,27,0,0,0-6.16.69A15.2,15.2,0,0,0,868.1,535a11.32,11.32,0,0,0-3.61,4,12.53,12.53,0,0,0-1.37,6.12,9.42,9.42,0,0,0,.78,4A8.29,8.29,0,0,0,866,552a11.56,11.56,0,0,0,3.16,1.92,24,24,0,0,0,3.79,1.18L888.88,559a46.07,46.07,0,0,1,6.54,2.24,21.64,21.64,0,0,1,5.39,3.29,13.87,13.87,0,0,1,3.65,4.8,16.09,16.09,0,0,1,1.33,6.85,25.19,25.19,0,0,1-.23,2.92,15,15,0,0,1-1.1,3.88,19.36,19.36,0,0,1-2.46,4.16,15.49,15.49,0,0,1-4.39,3.79,25.07,25.07,0,0,1-6.9,2.74,40.29,40.29,0,0,1-9.87,1.06,41.29,41.29,0,0,1-10.69-1.33,22.94,22.94,0,0,1-8.4-4.07,17.84,17.84,0,0,1-5.35-7A23.06,23.06,0,0,1,854.81,572H861A18.42,18.42,0,0,0,862.57,580.37Z" transform="translate(-376.91 -308.43)"/><path class="cls-1" d="M933.29,547.28v4.84h-9.6v31.79a10.26,10.26,0,0,0,.78,4.43c.52,1.07,1.81,1.66,3.88,1.79a45.44,45.44,0,0,0,4.94-.28v4.84c-.86,0-1.71,0-2.56.1s-1.71.09-2.56.09q-5.76,0-8-2.24t-2.19-8.27V552.12h-8.23v-4.84h8.23V527.57h5.75v19.71Z" transform="translate(-376.91 -308.43)"/><path class="cls-1" d="M946.9,547.57v11.06h.18a18.12,18.12,0,0,1,6.81-8.87,17.82,17.82,0,0,1,11-2.83v5.76a17.46,17.46,0,0,0-7.13,1,15.78,15.78,0,0,0-9.14,9,18.22,18.22,0,0,0-1.28,6.9v25.13H941.6V547.57Z" transform="translate(-376.91 -308.43)"/><path class="cls-1" d="M971.57,553.6a13.4,13.4,0,0,1,4-4.93,16.79,16.79,0,0,1,5.89-2.83,28.67,28.67,0,0,1,7.49-.92,32.77,32.77,0,0,1,6.22.6,15,15,0,0,1,5.57,2.23,12.31,12.31,0,0,1,4,4.62,16.58,16.58,0,0,1,1.55,7.72v25c0,2.32,1.13,3.47,3.38,3.47a4.53,4.53,0,0,0,1.83-.36v4.84c-.67.12-1.26.21-1.78.28a17.57,17.57,0,0,1-2,.09,8.61,8.61,0,0,1-3.52-.6,4.68,4.68,0,0,1-2.06-1.69,6.28,6.28,0,0,1-1-2.6,22.76,22.76,0,0,1-.23-3.34h-.18a38.08,38.08,0,0,1-3.15,4.07,15.63,15.63,0,0,1-3.56,3,16.7,16.7,0,0,1-4.48,1.83,24.84,24.84,0,0,1-6,.64,23.49,23.49,0,0,1-6.17-.78,13.85,13.85,0,0,1-5-2.47,11.76,11.76,0,0,1-3.38-4.29,14.33,14.33,0,0,1-1.23-6.17q0-4.93,2.19-7.72a13.85,13.85,0,0,1,5.8-4.25,33.13,33.13,0,0,1,8.13-2q4.53-.6,9.19-1.14c1.21-.13,2.28-.28,3.19-.46a5.49,5.49,0,0,0,2.29-1,4.51,4.51,0,0,0,1.42-1.87,8.22,8.22,0,0,0,.5-3.11,10.51,10.51,0,0,0-1-4.8,7.62,7.62,0,0,0-2.65-3,10.66,10.66,0,0,0-3.93-1.5,26,26,0,0,0-4.8-.42,14.49,14.49,0,0,0-9,2.61q-3.48,2.6-3.65,8.36h-5.76A19,19,0,0,1,971.57,553.6Zm28.78,14.07a3.3,3.3,0,0,1-2.11,1.46,20.15,20.15,0,0,1-2.74.64c-2.43.43-5,.81-7.53,1.14a42.07,42.07,0,0,0-7.09,1.51,13.81,13.81,0,0,0-5.25,2.88,6.87,6.87,0,0,0-2,5.35,8.36,8.36,0,0,0,.86,3.88,9.43,9.43,0,0,0,2.33,2.92,10.13,10.13,0,0,0,3.38,1.87,12.26,12.26,0,0,0,3.93.64,19.8,19.8,0,0,0,6.31-1,15.62,15.62,0,0,0,5.25-2.92,14,14,0,0,0,4.89-10.88v-7.49Z" transform="translate(-376.91 -308.43)"/><path class="cls-1" d="M1036.53,547.28v4.84h-9.6v31.79a10.26,10.26,0,0,0,.78,4.43c.51,1.07,1.81,1.66,3.88,1.79a45.44,45.44,0,0,0,4.94-.28v4.84c-.86,0-1.71,0-2.56.1s-1.71.09-2.56.09q-5.76,0-8-2.24c-1.52-1.49-2.26-4.25-2.19-8.27V552.12H1013v-4.84h8.23V526.59h5.76v20.69Z" transform="translate(-376.91 -308.43)"/><path class="cls-1" d="M1049.09,577.86a17.46,17.46,0,0,0,2.78,6,16,16,0,0,0,4.85,4.39,13.47,13.47,0,0,0,7,1.73q6.3,0,9.87-3.28a17.35,17.35,0,0,0,4.93-8.78h5.76q-1.83,8-6.72,12.43t-13.84,4.39a21.93,21.93,0,0,1-9.64-2,17.64,17.64,0,0,1-6.62-5.39,23.24,23.24,0,0,1-3.79-8,35.81,35.81,0,0,1-1.24-9.55,33.9,33.9,0,0,1,1.24-9.13,24.52,24.52,0,0,1,3.79-8,19,19,0,0,1,6.62-5.66,20.38,20.38,0,0,1,9.64-2.15,18.7,18.7,0,0,1,16.22,8.27,24.91,24.91,0,0,1,3.61,8.5,37.41,37.41,0,0,1,.91,9.73h-36.27A25.46,25.46,0,0,0,1049.09,577.86Zm28.5-17.59a17.17,17.17,0,0,0-3-5.34,14.7,14.7,0,0,0-4.66-3.75,13.37,13.37,0,0,0-6.21-1.42,13.54,13.54,0,0,0-6.3,1.42,14.7,14.7,0,0,0-4.66,3.75,18.57,18.57,0,0,0-3.06,5.39,25.76,25.76,0,0,0-1.51,6.26h30.51A20.78,20.78,0,0,0,1077.59,560.27Z" transform="translate(-376.91 -308.43)"/><path class="cls-1" d="M1131,601.06a18.37,18.37,0,0,1-3.61,7.12,15.73,15.73,0,0,1-6.44,4.48,26.72,26.72,0,0,1-9.73,1.55,29.24,29.24,0,0,1-7-.82,19.66,19.66,0,0,1-6.07-2.56,15.13,15.13,0,0,1-4.48-4.43,13.16,13.16,0,0,1-2.05-6.44h5.75a10.31,10.31,0,0,0,1.78,4.43,10.71,10.71,0,0,0,3.2,2.88,14.45,14.45,0,0,0,4.16,1.6,21.88,21.88,0,0,0,4.66.5q8,0,11.6-4.57t3.56-13.15v-6.4h-.18a16.87,16.87,0,0,1-5.89,7,15.79,15.79,0,0,1-9.09,2.65,22.79,22.79,0,0,1-9.69-1.88,17.94,17.94,0,0,1-6.62-5.16,20.89,20.89,0,0,1-3.79-7.72,36.48,36.48,0,0,1-1.19-9.46,29.3,29.3,0,0,1,1.42-9.18,22.65,22.65,0,0,1,4.11-7.58,19.15,19.15,0,0,1,6.67-5.12,21.07,21.07,0,0,1,9.09-1.87,16.52,16.52,0,0,1,5,.73,15.65,15.65,0,0,1,4.25,2.06,18.13,18.13,0,0,1,3.42,3.06,13.73,13.73,0,0,1,2.33,3.65h.18v-8.13h5.76v43.31A36,36,0,0,1,1131,601.06Zm-13.2-12.57a15,15,0,0,0,4.75-4.2,18.45,18.45,0,0,0,2.88-6,25.73,25.73,0,0,0,.95-6.95,30,30,0,0,0-.82-6.94,20,20,0,0,0-2.65-6.3,14.35,14.35,0,0,0-4.7-4.57,13.28,13.28,0,0,0-7-1.74,13.92,13.92,0,0,0-7,1.69,15.11,15.11,0,0,0-4.84,4.43,18.64,18.64,0,0,0-2.79,6.26,29.8,29.8,0,0,0-.86,7.17,26.51,26.51,0,0,0,.91,6.95,17.77,17.77,0,0,0,2.83,6,14.55,14.55,0,0,0,4.84,4.2,14.25,14.25,0,0,0,7,1.6A13.14,13.14,0,0,0,1117.75,588.49Z" transform="translate(-376.91 -308.43)"/><path class="cls-1" d="M1148.9,526.59v9.23h-5.75v-9.23Zm0,18.09v50.2h-5.76v-50.2Z" transform="translate(-376.91 -308.43)"/><path class="cls-1" d="M1164.2,577.86a17.66,17.66,0,0,0,2.79,6,16,16,0,0,0,4.84,4.39,13.54,13.54,0,0,0,7,1.73q6.3,0,9.87-3.28a17.35,17.35,0,0,0,4.93-8.78h5.75q-1.82,8-6.71,12.43t-13.84,4.39a21.93,21.93,0,0,1-9.64-2,17.64,17.64,0,0,1-6.62-5.39,23.45,23.45,0,0,1-3.8-8,36.22,36.22,0,0,1-1.23-9.55,34.29,34.29,0,0,1,1.23-9.13,24.74,24.74,0,0,1,3.8-8,19,19,0,0,1,6.62-5.66,20.38,20.38,0,0,1,9.64-2.15,18.67,18.67,0,0,1,16.21,8.27,24.71,24.71,0,0,1,3.61,8.5,37.41,37.41,0,0,1,.92,9.73h-36.27A25.44,25.44,0,0,0,1164.2,577.86Zm28.51-17.59a17.17,17.17,0,0,0-3-5.34,14.7,14.7,0,0,0-4.66-3.75,13.4,13.4,0,0,0-6.21-1.42,13.61,13.61,0,0,0-6.31,1.42,14.81,14.81,0,0,0-4.66,3.75,18.57,18.57,0,0,0-3.06,5.39,26.21,26.21,0,0,0-1.5,6.26h30.51A20.78,20.78,0,0,0,1192.71,560.27Z" transform="translate(-376.91 -308.43)"/><path class="cls-1" d="M1234.51,555.47a9.36,9.36,0,0,0-2.7-3.24,11.28,11.28,0,0,0-3.88-1.87,17.55,17.55,0,0,0-4.66-.6,18.5,18.5,0,0,0-3.88.42,11.9,11.9,0,0,0-3.61,1.37,7.69,7.69,0,0,0-2.65,2.51,6.9,6.9,0,0,0-1,3.84,5.38,5.38,0,0,0,1,3.24,8.66,8.66,0,0,0,2.42,2.24,15.69,15.69,0,0,0,3.2,1.51c1.16.39,2.23.71,3.2,1l7.67,1.73a22.17,22.17,0,0,1,4.89,1.32,15.65,15.65,0,0,1,4.3,2.52,12.45,12.45,0,0,1,3.06,3.83,11.62,11.62,0,0,1,1.18,5.4,11.8,11.8,0,0,1-1.73,6.53,14.14,14.14,0,0,1-4.43,4.38,18.81,18.81,0,0,1-6.08,2.43,31.9,31.9,0,0,1-6.67.73q-8.31,0-13.47-3.93t-5.9-12.61h5.76q.36,5.85,4.25,8.82a15.39,15.39,0,0,0,9.64,3,22.07,22.07,0,0,0,4.34-.45,13.84,13.84,0,0,0,4.15-1.56,10,10,0,0,0,3.16-2.78,6.88,6.88,0,0,0,1.23-4.16,6.63,6.63,0,0,0-.87-3.52,7.52,7.52,0,0,0-2.33-2.37,14.9,14.9,0,0,0-3.33-1.6c-1.25-.43-2.52-.79-3.79-1.1l-7.41-1.64a42.34,42.34,0,0,1-5.2-1.69,16.44,16.44,0,0,1-4.16-2.38,9.92,9.92,0,0,1-2.79-3.47,11.48,11.48,0,0,1-1-5.07,11.25,11.25,0,0,1,1.6-6.12,12.36,12.36,0,0,1,4.15-4.11,19.36,19.36,0,0,1,5.71-2.29,28.13,28.13,0,0,1,6.26-.73,23,23,0,0,1,6.63.92,15.28,15.28,0,0,1,5.39,2.83,14,14,0,0,1,3.7,4.75,17.1,17.1,0,0,1,1.55,6.67h-5.76A10.88,10.88,0,0,0,1234.51,555.47Z" transform="translate(-376.91 -308.43)"/><path class="cls-1" d="M1285.58,549.52v45.36h-5.76V549.52h-8v-4.84h8v-4.3a31.23,31.23,0,0,1,.46-5.57,10.73,10.73,0,0,1,1.74-4.38,8.34,8.34,0,0,1,3.51-2.84,14.22,14.22,0,0,1,5.71-1c.86,0,1.65,0,2.38.09s1.55.15,2.47.27v4.94l-2.2-.32a15.09,15.09,0,0,0-2-.14,7.52,7.52,0,0,0-3.65.73,4.44,4.44,0,0,0-1.87,2,7.44,7.44,0,0,0-.69,2.87q-.09,1.65-.09,3.57v4.11h9.32v4.84Z" transform="translate(-376.91 -308.43)"/><path class="cls-1" d="M1329.84,546.93a20.88,20.88,0,0,1,7,5.39,23.45,23.45,0,0,1,4.3,7.91,32.52,32.52,0,0,1,0,19.27,23.45,23.45,0,0,1-4.3,7.91,20.37,20.37,0,0,1-7,5.34,24.11,24.11,0,0,1-19.09,0,20.37,20.37,0,0,1-7-5.34,23.26,23.26,0,0,1-4.29-7.91,32.31,32.31,0,0,1,0-19.27,23.26,23.26,0,0,1,4.29-7.91,20.88,20.88,0,0,1,7-5.39,23.67,23.67,0,0,1,19.09,0Zm-16.76,4.57a15.86,15.86,0,0,0-5.16,4.57,20.7,20.7,0,0,0-3.11,6.44,26.29,26.29,0,0,0,0,14.71,20.7,20.7,0,0,0,3.11,6.44,15.86,15.86,0,0,0,5.16,4.57,15.91,15.91,0,0,0,14.43,0,15.89,15.89,0,0,0,5.17-4.57,20.68,20.68,0,0,0,3.1-6.44,26.29,26.29,0,0,0,0-14.71,20.68,20.68,0,0,0-3.1-6.44,15.89,15.89,0,0,0-5.17-4.57,15.83,15.83,0,0,0-14.43,0Z" transform="translate(-376.91 -308.43)"/><path class="cls-1" d="M1356.48,547.5v11.06h.18a18,18,0,0,1,6.81-8.86,17.83,17.83,0,0,1,11-2.84v5.76a17.46,17.46,0,0,0-7.13,1,15.78,15.78,0,0,0-9.14,9,18.22,18.22,0,0,0-1.28,6.9v25.13h-5.75V547.5Z" transform="translate(-376.91 -308.43)"/><path class="cls-1" d="M1435.41,526.59a23.18,23.18,0,0,1,7.95,1.29,16.48,16.48,0,0,1,6.12,3.81,16.75,16.75,0,0,1,3.93,6.15,25.2,25.2,0,0,1,0,16.39,16.75,16.75,0,0,1-3.93,6.15,16.48,16.48,0,0,1-6.12,3.81,23.18,23.18,0,0,1-7.95,1.29h-22.75v29.17h-6.21V526.59ZM1434,560q6.49,0,10.51-3.43t4-10.49q0-7-4-10.48T1434,532.12h-21.38V560Z" transform="translate(-376.91 -308.43)"/><path class="cls-1" d="M1468.21,547.5v11.06h.19a17.29,17.29,0,0,1,17.81-11.7v5.76a17.41,17.41,0,0,0-7.12,1,16,16,0,0,0-5.53,3.52,15.7,15.7,0,0,0-3.61,5.43,18,18,0,0,0-1.28,6.9v25.13h-5.76V547.5Z" transform="translate(-376.91 -308.43)"/><path class="cls-1" d="M1494.3,577.86a17.46,17.46,0,0,0,2.78,6,16.06,16.06,0,0,0,4.84,4.39,13.54,13.54,0,0,0,7,1.73q6.3,0,9.87-3.28a17.35,17.35,0,0,0,4.93-8.78h5.76q-1.83,8-6.72,12.43T1509,594.72a21.93,21.93,0,0,1-9.64-2,17.64,17.64,0,0,1-6.62-5.39,23.24,23.24,0,0,1-3.79-8,35.81,35.81,0,0,1-1.24-9.55,33.9,33.9,0,0,1,1.24-9.13,24.52,24.52,0,0,1,3.79-8,19,19,0,0,1,6.62-5.66,20.38,20.38,0,0,1,9.64-2.15,18.67,18.67,0,0,1,16.22,8.27,25.11,25.11,0,0,1,3.61,8.5,37.41,37.41,0,0,1,.91,9.73h-36.27A25.46,25.46,0,0,0,1494.3,577.86Zm28.5-17.59a17.17,17.17,0,0,0-3-5.34,14.7,14.7,0,0,0-4.66-3.75,13.37,13.37,0,0,0-6.21-1.42,13.57,13.57,0,0,0-6.3,1.42,14.7,14.7,0,0,0-4.66,3.75,18.57,18.57,0,0,0-3.06,5.39,25.76,25.76,0,0,0-1.51,6.26h30.51A20.78,20.78,0,0,0,1522.8,560.27Z" transform="translate(-376.91 -308.43)"/><path class="cls-1" d="M1566.34,552.78c-2.14-2-5.12-3-9-3a14.47,14.47,0,0,0-7.21,1.74,15.79,15.79,0,0,0-5.17,4.57,20.68,20.68,0,0,0-3.1,6.44,26.29,26.29,0,0,0,0,14.71,20.68,20.68,0,0,0,3.1,6.44,15.79,15.79,0,0,0,5.17,4.57,14.46,14.46,0,0,0,7.21,1.73,12.79,12.79,0,0,0,5-1,13.52,13.52,0,0,0,4.2-2.79,15.08,15.08,0,0,0,3-4.24,16,16,0,0,0,1.46-5.4h5.75q-1.18,8.6-6.3,13.39t-13.16,4.8a22.07,22.07,0,0,1-9.54-2,20.18,20.18,0,0,1-7-5.34,23.45,23.45,0,0,1-4.3-7.91,32.52,32.52,0,0,1,0-19.27,23.45,23.45,0,0,1,4.3-7.91,20.68,20.68,0,0,1,7-5.39,21.65,21.65,0,0,1,9.54-2,20.5,20.5,0,0,1,12.84,4q5.25,4,6.26,12.15h-5.76A15.83,15.83,0,0,0,1566.34,552.78Z" transform="translate(-376.91 -308.43)"/><path class="cls-1" d="M1590.73,526.59v9.23H1585v-9.23Zm0,18.09v50.2H1585v-50.2Z" transform="translate(-376.91 -308.43)"/><path class="cls-1" d="M1628.92,555.47a9.45,9.45,0,0,0-2.69-3.24,11.42,11.42,0,0,0-3.89-1.87,17.55,17.55,0,0,0-4.66-.6,18.5,18.5,0,0,0-3.88.42,11.9,11.9,0,0,0-3.61,1.37,7.69,7.69,0,0,0-2.65,2.51,6.9,6.9,0,0,0-1,3.84,5.44,5.44,0,0,0,1,3.24,8.7,8.7,0,0,0,2.43,2.24,15.61,15.61,0,0,0,3.19,1.51c1.16.39,2.23.71,3.2,1l7.68,1.73a22.24,22.24,0,0,1,4.88,1.32,15.65,15.65,0,0,1,4.3,2.52,12.16,12.16,0,0,1,3.06,3.83,11.62,11.62,0,0,1,1.19,5.4,11.81,11.81,0,0,1-1.74,6.53,14,14,0,0,1-4.43,4.38,18.81,18.81,0,0,1-6.08,2.43,31.9,31.9,0,0,1-6.67.73q-8.31,0-13.47-3.93t-5.9-12.61h5.76q.36,5.85,4.25,8.82a15.39,15.39,0,0,0,9.64,3,22,22,0,0,0,4.34-.45,13.74,13.74,0,0,0,4.15-1.56,9.88,9.88,0,0,0,3.16-2.78,6.88,6.88,0,0,0,1.23-4.16,6.63,6.63,0,0,0-.87-3.52,7.52,7.52,0,0,0-2.33-2.37,14.69,14.69,0,0,0-3.33-1.6c-1.25-.43-2.51-.79-3.79-1.1l-7.4-1.64a42,42,0,0,1-5.21-1.69,16.44,16.44,0,0,1-4.16-2.38,9.78,9.78,0,0,1-2.78-3.47,12.82,12.82,0,0,1,.59-11.19,12.3,12.3,0,0,1,4.16-4.11,19.25,19.25,0,0,1,5.71-2.29,28,28,0,0,1,6.25-.73,23,23,0,0,1,6.63.92,15.2,15.2,0,0,1,5.39,2.83,13.9,13.9,0,0,1,3.7,4.75,17.1,17.1,0,0,1,1.55,6.67H1630A11,11,0,0,0,1628.92,555.47Z" transform="translate(-376.91 -308.43)"/><path class="cls-1" d="M1651.58,526.59v9.23h-5.76v-9.23Zm0,18.09v50.2h-5.76v-50.2Z" transform="translate(-376.91 -308.43)"/><path class="cls-1" d="M1692.1,546.93a20.88,20.88,0,0,1,7,5.39,23.43,23.43,0,0,1,4.29,7.91,32.52,32.52,0,0,1,0,19.27,23.43,23.43,0,0,1-4.29,7.91,20.37,20.37,0,0,1-7,5.34,24.13,24.13,0,0,1-19.1,0,20.37,20.37,0,0,1-7-5.34,23.26,23.26,0,0,1-4.29-7.91,32.52,32.52,0,0,1,0-19.27,23.26,23.26,0,0,1,4.29-7.91,20.88,20.88,0,0,1,7-5.39,23.69,23.69,0,0,1,19.1,0Zm-16.77,4.57a15.86,15.86,0,0,0-5.16,4.57,20.7,20.7,0,0,0-3.11,6.44,26.29,26.29,0,0,0,0,14.71,20.7,20.7,0,0,0,3.11,6.44,15.86,15.86,0,0,0,5.16,4.57,15.93,15.93,0,0,0,14.44,0,15.86,15.86,0,0,0,5.16-4.57,20.7,20.7,0,0,0,3.11-6.44,26.29,26.29,0,0,0,0-14.71,20.7,20.7,0,0,0-3.11-6.44,15.86,15.86,0,0,0-5.16-4.57,15.85,15.85,0,0,0-14.44,0Z" transform="translate(-376.91 -308.43)"/><path class="cls-1" d="M1719.1,547.73v8.13h.18a13.74,13.74,0,0,1,5.84-6.89,17.18,17.18,0,0,1,9.23-2.61,23.29,23.29,0,0,1,8.27,1.28,13.23,13.23,0,0,1,5.35,3.61,13.58,13.58,0,0,1,2.83,5.71,32.08,32.08,0,0,1,.82,7.58v30.34h-5.76V565.46a27.63,27.63,0,0,0-.54-5.62,12,12,0,0,0-1.92-4.52,9.37,9.37,0,0,0-3.7-3,13.65,13.65,0,0,0-5.8-1.09,14.71,14.71,0,0,0-6.17,1.23,13.33,13.33,0,0,0-4.57,3.38,15.57,15.57,0,0,0-2.92,5.12,20.51,20.51,0,0,0-1.14,6.44v27.5h-5.76V547.73Z" transform="translate(-376.91 -308.43)"/><path class="cls-1" d="M850.74,623.33v29.42h38.74V623.33h6.21v67.76h-6.21V658.25H850.74v32.84h-6.21V623.33Z" transform="translate(-376.91 -308.43)"/><path class="cls-1" d="M912,674.23a17.89,17.89,0,0,0,2.78,6,16,16,0,0,0,4.85,4.38,13.5,13.5,0,0,0,7,1.74c4.21,0,7.49-1.1,9.87-3.29a17.32,17.32,0,0,0,4.93-8.77h5.76q-1.83,8-6.72,12.42t-13.84,4.39a22.11,22.11,0,0,1-9.64-2,17.66,17.66,0,0,1-6.62-5.4,23.28,23.28,0,0,1-3.79-7.94,36.28,36.28,0,0,1-1.24-9.55,34.38,34.38,0,0,1,1.24-9.14,24.37,24.37,0,0,1,3.79-8,19,19,0,0,1,6.62-5.67,20.41,20.41,0,0,1,9.64-2.14,18.63,18.63,0,0,1,16.22,8.26,24.91,24.91,0,0,1,3.61,8.5,37.41,37.41,0,0,1,.91,9.73H911.13A25.46,25.46,0,0,0,912,674.23Zm28.5-17.58a17.22,17.22,0,0,0-3-5.35,14.83,14.83,0,0,0-4.66-3.75,13.34,13.34,0,0,0-6.21-1.41,13.57,13.57,0,0,0-6.3,1.41,14.83,14.83,0,0,0-4.66,3.75,18.57,18.57,0,0,0-3.06,5.39,26.35,26.35,0,0,0-1.51,6.26h30.52A21.09,21.09,0,0,0,940.5,656.65Z" transform="translate(-376.91 -308.43)"/><path class="cls-1" d="M956.35,650a13.56,13.56,0,0,1,4-4.94,16.79,16.79,0,0,1,5.89-2.83,28.68,28.68,0,0,1,7.49-.91,33.59,33.59,0,0,1,6.22.59,15,15,0,0,1,5.57,2.24,12.21,12.21,0,0,1,4,4.61,16.61,16.61,0,0,1,1.55,7.72v25q0,3.46,3.38,3.47a4.37,4.37,0,0,0,1.83-.37v4.84c-.67.13-1.26.22-1.78.28a17.64,17.64,0,0,1-2,.09,8.78,8.78,0,0,1-3.51-.59,4.74,4.74,0,0,1-2.06-1.69,6.27,6.27,0,0,1-1-2.61,22.52,22.52,0,0,1-.23-3.33h-.18a37.91,37.91,0,0,1-3.15,4.06,15.63,15.63,0,0,1-3.56,3,16.38,16.38,0,0,1-4.48,1.83,24.34,24.34,0,0,1-6,.64,23.49,23.49,0,0,1-6.17-.78,13.83,13.83,0,0,1-5-2.46,11.8,11.8,0,0,1-3.38-4.3,14.3,14.3,0,0,1-1.23-6.17c0-3.28.73-5.86,2.19-7.72a13.83,13.83,0,0,1,5.8-4.24,33.12,33.12,0,0,1,8.13-2.06q4.53-.6,9.19-1.14c1.21-.12,2.28-.28,3.19-.46a5.49,5.49,0,0,0,2.29-1,4.34,4.34,0,0,0,1.41-1.87,8,8,0,0,0,.51-3.11,10.44,10.44,0,0,0-1-4.79,7.63,7.63,0,0,0-2.65-3,10.67,10.67,0,0,0-3.93-1.51,26.91,26.91,0,0,0-4.8-.41,14.55,14.55,0,0,0-9,2.6q-3.48,2.61-3.65,8.36h-5.76A19.16,19.16,0,0,1,956.35,650Zm28.78,14.07a3.29,3.29,0,0,1-2.1,1.46,21.77,21.77,0,0,1-2.74.64c-2.43.42-4.95.81-7.53,1.14a42.07,42.07,0,0,0-7.09,1.51,13.93,13.93,0,0,0-5.25,2.87,6.88,6.88,0,0,0-2,5.35,8.34,8.34,0,0,0,.86,3.88,9.59,9.59,0,0,0,2.33,2.93,10.31,10.31,0,0,0,3.38,1.87,12.26,12.26,0,0,0,3.93.64,19.58,19.58,0,0,0,6.31-1,15.45,15.45,0,0,0,5.25-2.92,14,14,0,0,0,4.89-10.87v-7.49Z" transform="translate(-376.91 -308.43)"/><path class="cls-1" d="M1008.34,623.33v67.76h-5.76V623.33Z" transform="translate(-376.91 -308.43)"/><path class="cls-1" d="M1038.22,643.49v4.84h-9.6v31.8a10.32,10.32,0,0,0,.78,4.43c.52,1.06,1.81,1.66,3.88,1.78a43.06,43.06,0,0,0,4.94-.28v4.85c-.86,0-1.71,0-2.56.09s-1.71.09-2.56.09q-5.76,0-8-2.24t-2.19-8.27V648.33h-8.23v-4.84h8.23V623.33h5.75v20.16Z" transform="translate(-376.91 -308.43)"/><path class="cls-1" d="M1052.19,623.19v29h.19a13.8,13.8,0,0,1,5.84-6.9,17.26,17.26,0,0,1,9.23-2.6,23.29,23.29,0,0,1,8.27,1.28,13.1,13.1,0,0,1,5.35,3.61,13.58,13.58,0,0,1,2.83,5.71,32,32,0,0,1,.82,7.58v30.33H1079V661.82a27.63,27.63,0,0,0-.54-5.62,12,12,0,0,0-1.92-4.53,9.35,9.35,0,0,0-3.7-3,13.64,13.64,0,0,0-5.8-1.1,14.53,14.53,0,0,0-6.17,1.24,13.33,13.33,0,0,0-4.57,3.38,15.52,15.52,0,0,0-2.92,5.11,20.56,20.56,0,0,0-1.15,6.44v27.5h-5.75v-68Z" transform="translate(-376.91 -308.43)"/><path class="cls-1" d="M1126.84,623.33v9.23h-5.76v-9.23Zm0,18.09v49.67h-5.76V641.42Z" transform="translate(-376.91 -308.43)"/><path class="cls-1" d="M1143.56,644v8.13h.18a13.78,13.78,0,0,1,5.85-6.9,17.11,17.11,0,0,1,9.22-2.6,23.3,23.3,0,0,1,8.27,1.27,13.16,13.16,0,0,1,5.35,3.61,13.52,13.52,0,0,1,2.83,5.71,32.16,32.16,0,0,1,.82,7.59v30.33h-5.75V661.67a27.68,27.68,0,0,0-.55-5.62,12,12,0,0,0-1.92-4.52,9.3,9.3,0,0,0-3.7-3,13.61,13.61,0,0,0-5.8-1.09,14.71,14.71,0,0,0-6.17,1.23,13.33,13.33,0,0,0-4.57,3.38,15.57,15.57,0,0,0-2.92,5.12,20.85,20.85,0,0,0-1.14,6.44v27.5h-5.76V644Z" transform="translate(-376.91 -308.43)"/><path class="cls-1" d="M1241,623.33a37.66,37.66,0,0,1,7.9.81,18.71,18.71,0,0,1,6.67,2.75,14.53,14.53,0,0,1,4.62,5.12,18.06,18.06,0,0,1,.91,13.1,15.85,15.85,0,0,1-2.33,4.56,15,15,0,0,1-3.56,3.46,12.94,12.94,0,0,1-4.62,2v.19a15.19,15.19,0,0,1,10,5.36,16.88,16.88,0,0,1,3.75,11.16,28.16,28.16,0,0,1-.27,3.65,18.68,18.68,0,0,1-1.1,4.17,17.65,17.65,0,0,1-2.38,4.23,14.16,14.16,0,0,1-4.15,3.65,24.19,24.19,0,0,1-6.4,2.56,35.9,35.9,0,0,1-9.09,1h-27.59V623.33Zm0,29.71a20.58,20.58,0,0,0,6.49-.91,13.46,13.46,0,0,0,4.57-2.46,10.22,10.22,0,0,0,2.74-3.66,11.15,11.15,0,0,0,.91-4.46q0-12.72-14.71-12.71h-21.38V653Zm0,32.55a33.87,33.87,0,0,0,6.58-.62,14.8,14.8,0,0,0,5.48-2.23,11.42,11.42,0,0,0,3.75-4.32,15,15,0,0,0,1.37-6.78q0-6.55-4.43-9.83T1241,658.54h-21.38v27.05Z" transform="translate(-376.91 -308.43)"/><path class="cls-1" d="M1278.59,644v11h.18a18.1,18.1,0,0,1,6.81-8.86,17.79,17.79,0,0,1,11-2.83v5.75a17.46,17.46,0,0,0-7.13,1.05,16,16,0,0,0-5.52,3.52,15.65,15.65,0,0,0-3.61,5.44,18,18,0,0,0-1.28,6.89v25.13h-5.76V644Z" transform="translate(-376.91 -308.43)"/><path class="cls-1" d="M1304.67,674.23a17.71,17.71,0,0,0,2.79,6,15.92,15.92,0,0,0,4.84,4.38,13.54,13.54,0,0,0,7,1.74q6.3,0,9.87-3.29a17.32,17.32,0,0,0,4.93-8.77h5.75q-1.82,8-6.71,12.42t-13.84,4.39a22.08,22.08,0,0,1-9.64-2,17.66,17.66,0,0,1-6.62-5.4,23.49,23.49,0,0,1-3.8-7.94,36.28,36.28,0,0,1-1.23-9.55,34.37,34.37,0,0,1,1.23-9.14,24.59,24.59,0,0,1,3.8-8,19,19,0,0,1,6.62-5.67,20.38,20.38,0,0,1,9.64-2.14,18.66,18.66,0,0,1,16.22,8.26,24.89,24.89,0,0,1,3.6,8.5,37.41,37.41,0,0,1,.92,9.73h-36.27A25.9,25.9,0,0,0,1304.67,674.23Zm28.51-17.58a17.22,17.22,0,0,0-3-5.35,14.83,14.83,0,0,0-4.66-3.75,13.39,13.39,0,0,0-6.21-1.41,13.61,13.61,0,0,0-6.31,1.41,15,15,0,0,0-4.66,3.75,19,19,0,0,0-3.06,5.39,26.33,26.33,0,0,0-1.5,6.26h30.51A20.77,20.77,0,0,0,1333.18,656.65Z" transform="translate(-376.91 -308.43)"/><path class="cls-1" d="M1349,650a13.46,13.46,0,0,1,4-4.94,16.71,16.71,0,0,1,5.89-2.83,28.63,28.63,0,0,1,7.49-.91,33.48,33.48,0,0,1,6.21.59,15.1,15.1,0,0,1,5.58,2.24,12.21,12.21,0,0,1,4,4.61,16.74,16.74,0,0,1,1.55,7.72v25q0,3.46,3.38,3.47a4.37,4.37,0,0,0,1.83-.37v4.84c-.67.13-1.27.22-1.78.28a17.77,17.77,0,0,1-2,.09,8.86,8.86,0,0,1-3.52-.59,4.77,4.77,0,0,1-2-1.69,6.27,6.27,0,0,1-1-2.61,22.52,22.52,0,0,1-.23-3.33h-.18a39.24,39.24,0,0,1-3.15,4.06,15.68,15.68,0,0,1-3.57,3,16.32,16.32,0,0,1-4.47,1.83,24.37,24.37,0,0,1-6,.64,23.54,23.54,0,0,1-6.17-.78,13.86,13.86,0,0,1-5-2.46,11.8,11.8,0,0,1-3.38-4.3,14.3,14.3,0,0,1-1.23-6.17c0-3.28.73-5.86,2.19-7.72a13.77,13.77,0,0,1,5.8-4.24,33.12,33.12,0,0,1,8.13-2.06q4.53-.6,9.18-1.14c1.22-.12,2.29-.28,3.2-.46a5.49,5.49,0,0,0,2.29-1,4.42,4.42,0,0,0,1.41-1.87,8,8,0,0,0,.5-3.11,10.44,10.44,0,0,0-1-4.79,7.55,7.55,0,0,0-2.65-3,10.56,10.56,0,0,0-3.92-1.51,27.08,27.08,0,0,0-4.8-.41,14.55,14.55,0,0,0-9,2.6q-3.48,2.61-3.66,8.36h-5.75A19.16,19.16,0,0,1,1349,650Zm28.78,14.07a3.29,3.29,0,0,1-2.1,1.46,22.18,22.18,0,0,1-2.74.64c-2.44.42-5,.81-7.54,1.14a41.74,41.74,0,0,0-7.08,1.51,13.93,13.93,0,0,0-5.25,2.87A6.89,6.89,0,0,0,1351,677a8.34,8.34,0,0,0,.87,3.88,9.44,9.44,0,0,0,2.33,2.93,10.21,10.21,0,0,0,3.38,1.87,12.26,12.26,0,0,0,3.93.64,19.52,19.52,0,0,0,6.3-1,15.59,15.59,0,0,0,5.26-2.92,13.9,13.9,0,0,0,4.88-10.87v-7.49Z" transform="translate(-376.91 -308.43)"/><path class="cls-1" d="M1422.4,651.85a9.4,9.4,0,0,0-2.7-3.25,11.37,11.37,0,0,0-3.88-1.87,18,18,0,0,0-4.66-.59,19.1,19.1,0,0,0-3.88.41,11.8,11.8,0,0,0-3.61,1.37,7.78,7.78,0,0,0-2.65,2.51,7,7,0,0,0-1,3.84,5.36,5.36,0,0,0,1,3.24,8.52,8.52,0,0,0,2.42,2.24,15.69,15.69,0,0,0,3.2,1.51c1.16.4,2.22.72,3.2,1l7.67,1.73a22.2,22.2,0,0,1,4.89,1.33,16,16,0,0,1,4.3,2.51,12.61,12.61,0,0,1,3.06,3.84,11.55,11.55,0,0,1,1.18,5.39,11.84,11.84,0,0,1-1.73,6.53,14.28,14.28,0,0,1-4.43,4.39,19.12,19.12,0,0,1-6.08,2.42,31.31,31.31,0,0,1-6.67.73q-8.31,0-13.47-3.93t-5.9-12.61h5.76q.36,5.85,4.25,8.82a15.38,15.38,0,0,0,9.64,3,21.2,21.2,0,0,0,4.33-.46,13.78,13.78,0,0,0,4.16-1.55,9.88,9.88,0,0,0,3.15-2.79,6.8,6.8,0,0,0,1.24-4.16,6.6,6.6,0,0,0-.87-3.51,7.55,7.55,0,0,0-2.33-2.38,14.77,14.77,0,0,0-3.34-1.6c-1.24-.42-2.51-.79-3.79-1.09l-7.4-1.65a40.19,40.19,0,0,1-5.2-1.69,16.73,16.73,0,0,1-4.16-2.37,10,10,0,0,1-2.79-3.47,11.56,11.56,0,0,1-1-5.08,11.3,11.3,0,0,1,1.6-6.12,12.54,12.54,0,0,1,4.15-4.11,19.62,19.62,0,0,1,5.71-2.28,27.49,27.49,0,0,1,6.26-.73,23,23,0,0,1,6.62.91A15.33,15.33,0,0,1,1424,645a14.12,14.12,0,0,1,3.7,4.75,17.1,17.1,0,0,1,1.55,6.67h-5.76A10.84,10.84,0,0,0,1422.4,651.85Z" transform="translate(-376.91 -308.43)"/><path class="cls-1" d="M1457.94,643.61v4.84h-9.6v31.8a10.26,10.26,0,0,0,.78,4.43c.52,1.07,1.81,1.66,3.88,1.78a45.43,45.43,0,0,0,4.94-.27V691c-.86,0-1.71,0-2.56.09s-1.71.09-2.56.09q-5.76,0-8-2.23c-1.52-1.5-2.26-4.25-2.19-8.27V648.45h-8.23v-4.84h8.23V623.33h5.76v20.28Z" transform="translate(-376.91 -308.43)"/><path class="cls-1" d="M1537.74,637.72a18.33,18.33,0,0,0-4.57-5,20.17,20.17,0,0,0-5.94-3.06,21.93,21.93,0,0,0-6.8-1,23.47,23.47,0,0,0-11.15,2.47,22.1,22.1,0,0,0-7.63,6.53,28,28,0,0,0-4.38,9.18,39.42,39.42,0,0,0,0,21,28,28,0,0,0,4.38,9.23,22.1,22.1,0,0,0,7.63,6.53,23.59,23.59,0,0,0,11.15,2.47,19.78,19.78,0,0,0,8.22-1.65,19.36,19.36,0,0,0,6.3-4.47,23,23,0,0,0,4.3-6.63,27.35,27.35,0,0,0,2.1-8.18h6.21a35.14,35.14,0,0,1-2.83,10.88,26.78,26.78,0,0,1-5.66,8.22,24.19,24.19,0,0,1-8.18,5.21,28.85,28.85,0,0,1-10.46,1.82,30.77,30.77,0,0,1-13.48-2.78,28,28,0,0,1-9.64-7.45,31.57,31.57,0,0,1-5.75-10.78,44.16,44.16,0,0,1,0-25.76,32.18,32.18,0,0,1,5.75-10.83,27.71,27.71,0,0,1,9.64-7.49,32.65,32.65,0,0,1,22.57-1.42,26.5,26.5,0,0,1,8,4.07,23.75,23.75,0,0,1,6,6.62,22.38,22.38,0,0,1,3.06,9.05h-6.21A20.88,20.88,0,0,0,1537.74,637.72Z" transform="translate(-376.91 -308.43)"/><path class="cls-1" d="M1557.16,650.1a13.4,13.4,0,0,1,4-4.93,16.81,16.81,0,0,1,5.89-2.84,29.11,29.11,0,0,1,7.49-.91,33.51,33.51,0,0,1,6.22.59,15.15,15.15,0,0,1,5.57,2.24,12.23,12.23,0,0,1,4,4.62,16.58,16.58,0,0,1,1.55,7.72v25c0,2.32,1.13,3.47,3.39,3.47a4.51,4.51,0,0,0,1.82-.36v4.84c-.67.12-1.26.21-1.78.27a15.44,15.44,0,0,1-2,.09,8.62,8.62,0,0,1-3.52-.59,4.68,4.68,0,0,1-2.06-1.69,6.28,6.28,0,0,1-1-2.6,22.83,22.83,0,0,1-.22-3.34h-.19a37.79,37.79,0,0,1-3.15,4.07,15.63,15.63,0,0,1-3.56,3,16.37,16.37,0,0,1-4.48,1.82,24.34,24.34,0,0,1-6,.64,23.92,23.92,0,0,1-6.17-.77,13.85,13.85,0,0,1-5-2.47,12,12,0,0,1-3.38-4.29,14.33,14.33,0,0,1-1.23-6.17q0-4.93,2.19-7.72a13.85,13.85,0,0,1,5.8-4.25,33.1,33.1,0,0,1,8.14-2q4.51-.6,9.18-1.15c1.22-.12,2.28-.27,3.2-.45a5.78,5.78,0,0,0,2.28-1,4.48,4.48,0,0,0,1.42-1.88,8.13,8.13,0,0,0,.5-3.1,10.51,10.51,0,0,0-1-4.8,7.55,7.55,0,0,0-2.65-3,10.85,10.85,0,0,0-3.93-1.51,26.91,26.91,0,0,0-4.8-.41,14.49,14.49,0,0,0-9,2.61q-3.46,2.6-3.65,8.36h-5.76A19,19,0,0,1,1557.16,650.1Zm28.78,14.07a3.3,3.3,0,0,1-2.11,1.46,20.15,20.15,0,0,1-2.74.64c-2.43.43-4.95.81-7.53,1.14a41.74,41.74,0,0,0-7.08,1.51,13.78,13.78,0,0,0-5.26,2.88,6.86,6.86,0,0,0-2,5.34A8.38,8.38,0,0,0,1560,681a9.55,9.55,0,0,0,2.33,2.92,10.13,10.13,0,0,0,3.38,1.87,12.26,12.26,0,0,0,3.93.64,19.8,19.8,0,0,0,6.31-1,15.47,15.47,0,0,0,5.25-2.93,13.91,13.91,0,0,0,4.89-10.87v-7.49Z" transform="translate(-376.91 -308.43)"/><path class="cls-1" d="M1609.05,644.07v8.13h.18a13.87,13.87,0,0,1,5.85-6.9,17.23,17.23,0,0,1,9.23-2.6,23.33,23.33,0,0,1,8.27,1.28,13,13,0,0,1,5.34,3.61,13.41,13.41,0,0,1,2.83,5.71,32,32,0,0,1,.82,7.58v30.33h-5.75V661.79a27,27,0,0,0-.55-5.62,12.06,12.06,0,0,0-1.92-4.52,9.21,9.21,0,0,0-3.7-3,13.61,13.61,0,0,0-5.8-1.1,14.56,14.56,0,0,0-6.17,1.24,13.42,13.42,0,0,0-4.57,3.38,15.69,15.69,0,0,0-2.92,5.11,20.85,20.85,0,0,0-1.14,6.44v27.5h-5.76V644.07Z" transform="translate(-376.91 -308.43)"/><path class="cls-1" d="M1681.32,649.28c-2.14-2-5.12-3-9-3a14.49,14.49,0,0,0-7.21,1.74,15.79,15.79,0,0,0-5.17,4.57,20.68,20.68,0,0,0-3.1,6.44,26.29,26.29,0,0,0,0,14.71,20.68,20.68,0,0,0,3.1,6.44,15.79,15.79,0,0,0,5.17,4.57,14.6,14.6,0,0,0,7.21,1.73,12.79,12.79,0,0,0,5-1,13.52,13.52,0,0,0,4.2-2.79,15,15,0,0,0,3-4.25,15.64,15.64,0,0,0,1.46-5.39h5.75q-1.18,8.6-6.3,13.39t-13.16,4.79a22.07,22.07,0,0,1-9.54-2,20.09,20.09,0,0,1-7-5.35,23.31,23.31,0,0,1-4.3-7.9,32.56,32.56,0,0,1,0-19.28,23.5,23.5,0,0,1,4.3-7.9,20.68,20.68,0,0,1,7-5.39,21.65,21.65,0,0,1,9.54-2,20.5,20.5,0,0,1,12.84,4q5.25,4,6.26,12.15h-5.76A15.83,15.83,0,0,0,1681.32,649.28Z" transform="translate(-376.91 -308.43)"/><path class="cls-1" d="M1704.11,674.36a17.66,17.66,0,0,0,2.79,6,16,16,0,0,0,4.84,4.39,13.63,13.63,0,0,0,7,1.73q6.3,0,9.86-3.29a17.29,17.29,0,0,0,4.94-8.77h5.75q-1.83,8-6.71,12.43t-13.84,4.38a21.94,21.94,0,0,1-9.64-2,17.85,17.85,0,0,1-6.63-5.39,23.71,23.71,0,0,1-3.79-8,36.22,36.22,0,0,1-1.23-9.55,34.29,34.29,0,0,1,1.23-9.13,24.83,24.83,0,0,1,3.79-8,19.13,19.13,0,0,1,6.63-5.66,20.38,20.38,0,0,1,9.64-2.15,18.61,18.61,0,0,1,16.21,8.27,24.71,24.71,0,0,1,3.61,8.5,37.37,37.37,0,0,1,.92,9.73h-36.28A25.52,25.52,0,0,0,1704.11,674.36Zm28.51-17.59a17.34,17.34,0,0,0-3-5.35,14.67,14.67,0,0,0-4.66-3.74,13.4,13.4,0,0,0-6.21-1.42,13.61,13.61,0,0,0-6.31,1.42,14.78,14.78,0,0,0-4.66,3.74,18.76,18.76,0,0,0-3.06,5.4,26.76,26.76,0,0,0-1.51,6.25h30.52A20.77,20.77,0,0,0,1732.62,656.77Z" transform="translate(-376.91 -308.43)"/><path class="cls-1" d="M1752.58,644v11h.18a18.1,18.1,0,0,1,6.81-8.86,17.76,17.76,0,0,1,11-2.83v5.75a17.46,17.46,0,0,0-7.13,1.05,16,16,0,0,0-5.52,3.52,15.65,15.65,0,0,0-3.61,5.44A18,18,0,0,0,1753,666v25.13h-5.76V644Z" transform="translate(-376.91 -308.43)"/></svg>